<?xml version="1.0" encoding="utf-8"?>
<!-- Generator: Adobe Illustrator 22.0.0, SVG Export Plug-In . SVG Version: 6.00 Build 0)  -->
<svg version="1.1" id="图层_1" xmlns="http://www.w3.org/2000/svg" xmlns:xlink="http://www.w3.org/1999/xlink" x="0px" y="0px"
	 viewBox="0 0 1145 338" style="enable-background:new 0 0 1145 338;" xml:space="preserve">
<style type="text/css">
	.st0{opacity:0.3;fill:#CFD8DC;stroke:#37474F;stroke-width:12;stroke-miterlimit:10;enable-background:new    ;}
	.st1{opacity:0.7;fill:#CFD8DC;stroke:#37474F;stroke-width:12;stroke-miterlimit:10;enable-background:new    ;}
	.st2{fill:#FFFFFF;stroke:#37474F;stroke-width:12;stroke-miterlimit:10;}
	.st3{fill:#37474F;}
	.st4{fill:#7C7C7C;}
</style>
<path class="st0" d="M186,233h138c6,0,11-4.9,11-11V111c0-6.1-5-11-11-11H186c-6.1,0-11,4.9-11,11v111C175,228.1,179.9,233,186,233z
	"/>
<path class="st1" d="M299.6,270.3H110.8c-5.2,0-9.4-4.2-9.4-9.4V71.6c0-5.2,4.2-9.4,9.4-9.4h188.8c5.2,0,9.4,4.2,9.4,9.4v189.3
	C309,266.1,304.8,270.3,299.6,270.3z"/>
<path class="st2" d="M266.6,296.3H91.8c-9,0-16.4-7.3-16.4-16.4V52.6c0-9,7.3-16.4,16.4-16.4h174.8c9,0,16.4,7.3,16.4,16.4v227.3
	C283,288.9,275.7,296.3,266.6,296.3z"/>
<g>
	<g>
		<path class="st2" d="M218.1,233H63.8c-6,0-10.8-4.9-10.8-10.9V110.7c0-6,4.9-10.8,10.8-10.8h154.3c6,0,10.9,4.9,10.9,10.8v111.5
			C229,228.1,224.1,233,218.1,233z"/>
	</g>
</g>
<g>
	<path class="st3" d="M142.3,177.9c0,17.3-4.3,30.5-22.9,30.5c-11.1,0-15.4-3.2-17.5-7.8l-1,6.8H81.7v-82.9h20.9v28.9
		c2.3-2.8,7.1-6,16.8-6C138,147.4,142.3,158.8,142.3,177.9z M121.2,177.9c0-9.6-1.3-15.7-9.8-15.7c-8.3,0-10.1,5.5-10.1,15.7
		c0,9.7,1.8,15.5,10.1,15.5C120.1,193.4,121.2,187,121.2,177.9z"/>
</g>
<rect x="255" y="100" class="st4" width="3" height="133"/>
<g>
	<path class="st3" d="M499.4,184.2c0,30.5-7.5,53.7-40.1,53.7c-19.4,0-26.9-5.6-30.5-13.8l-1.7,11.9h-33.6V90.2H430v50.8
		c4-5,12.5-10.5,29.3-10.5C491.9,130.5,499.4,150.6,499.4,184.2z M462.6,184.2c0-16.9-2.3-27.6-17.1-27.6
		c-14.6,0-17.6,9.6-17.6,27.6c0,17.1,3.1,27.2,17.6,27.2C460.6,211.4,462.6,200.1,462.6,184.2z"/>
	<path class="st3" d="M604.1,184.2c0,30.5-7.5,53.7-40.1,53.7c-17.6,0-25.3-4.6-29.3-11.7v48.1h-36.4V132.4h36.4v8.6
		c4-5,12.5-10.5,29.3-10.5C596.6,130.5,604.1,150.6,604.1,184.2z M567.3,184.2c0-16.9-2.3-27.6-17.1-27.6
		c-14.6,0-17.6,9.6-17.6,27.6c0,17.1,3.1,27.2,17.6,27.2C565.4,211.4,567.3,200.1,567.3,184.2z"/>
	<path class="st3" d="M764.6,169.4V236h-36.4v-61.8c0-12.9-4-15-12.7-15c-10,0-12.9,4.4-14.2,11.9V236h-36.4v-61.8
		c0-12.9-4.8-15-12.9-15c-9.4,0-11.9,3.8-12.9,9.4V236h-36.4V132.4h36.4V143c4.8-7.1,12.1-12.5,28.8-12.5c14.8,0,24,3.8,29,12.7
		c5.2-8.1,15.3-12.7,32.4-12.7C752,130.5,764.6,139.5,764.6,169.4z"/>
	<path class="st3" d="M849.2,182.7l-73.1,5.2c0.4,30.5,9.2,42.2,37.2,42.2c10.7,0,24-2.3,32.4-6.3v8.2c-5.8,2.7-19.9,5.9-33,5.9
		c-32.4,0-45.5-13-45.5-53.7s12.7-53.7,44.5-53.7c34.3,0,37.8,22.8,37.8,42.2C849.6,175.6,849.6,178.7,849.2,182.7z M841.4,175.6
		c0-22.6-3.1-37.2-29.9-37.2s-34.9,11.9-35.3,42.2L841.4,175.6z"/>
	<path class="st3" d="M937.6,162.9V236h-7.3l-1.3-18.4c-6.1,13-22.1,20.3-40.7,20.3c-24.7,0-34.9-10.9-34.9-30.1
		c0-26.5,18-32.2,40.7-32.2H929v-11.3c0-16.3-5.4-25.7-29-25.7c-6.7,0-15.3,0.8-23.2,2.5v-8.4c7.7-1.3,16.3-2.1,23.8-2.1
		C931.7,130.5,937.6,144.7,937.6,162.9z M929,205.7v-22.4h-33.8c-21.3,0-33.2,3.8-33.2,24.6c0,15,9,22.1,26.1,22.1
		C908.5,229.9,923.8,221.4,929,205.7z"/>
	<path class="st3" d="M947.4,234.1v-8.2c7.7,1.9,18.4,3.5,29.7,3.5c18.2,0,27.2-6.3,27.2-20.5c0-12.3-5-17.3-24.9-22.4
		c-21.3-5.4-29.9-9.8-29.9-28c0-18.8,13.4-27.8,33.4-27.8c11.1,0,21.9,1.7,26.9,3.5l-0.6,8.4c-6.3-2.3-16.5-4-26.3-4
		c-14.8,0-24.7,5.4-24.7,19.9c0,14,7.9,16.7,22.6,20.3c22.6,5.8,32.2,11.5,32.2,30.1c0,17.3-10.5,28.4-35.9,28.4
		C966.4,237.2,955.5,236,947.4,234.1z"/>
	<path class="st3" d="M1013,266.7c17.1,0,24.4-7.3,32.6-31.3l-41.4-103h9.2l36.3,92.3h1.2l33.4-92.3h9l-38.6,104.1
		c-8.6,23.2-16.3,37.8-41.6,37.8V266.7z"/>
</g>
</svg>
