<svg height="395pt" viewBox="-3 0 395 395.94667" width="395pt" xmlns="http://www.w3.org/2000/svg"><path d="m266.714844 273.066406h-225.28125c-3.769532 0-6.828125-3.054687-6.828125-6.828125v-225.277343c0-3.769532 3.058593-6.828126 6.828125-6.828126h225.28125c3.769531 0 6.824218 3.058594 6.824218 6.828126v225.277343c0 3.773438-3.054687 6.828125-6.824218 6.828125zm-218.453125-13.652344h211.625v-211.628906h-211.625zm0 0" fill="#0e65e5"/><path d="m75.566406 40.960938c0 18.851562-15.28125 34.132812-34.132812 34.132812-18.851563 0-34.132813-15.28125-34.132813-34.132812 0-18.851563 15.28125-34.132813 34.132813-34.132813 18.851562 0 34.132812 15.28125 34.132812 34.132813zm0 0" fill="#d7e9ff"/><path d="m41.433594 81.921875c-22.585938 0-40.960938-18.375-40.960938-40.960937 0-22.585938 18.375-40.960938 40.960938-40.960938 22.585937 0 40.960937 18.375 40.960937 40.960938 0 22.585937-18.375 40.960937-40.960937 40.960937zm0-68.269531c-15.054688 0-27.308594 12.25-27.308594 27.308594 0 15.054687 12.253906 27.304687 27.308594 27.304687 15.054687 0 27.304687-12.25 27.304687-27.304687 0-15.058594-12.25-27.308594-27.304687-27.308594zm0 0" fill="#0e65e5"/><path d="m300.847656 40.960938c0 18.851562-15.28125 34.132812-34.132812 34.132812-18.851563 0-34.136719-15.28125-34.136719-34.132812 0-18.851563 15.285156-34.132813 34.136719-34.132813 18.851562 0 34.132812 15.28125 34.132812 34.132813zm0 0" fill="#d7e9ff"/><path d="m266.714844 81.921875c-22.585938 0-40.960938-18.375-40.960938-40.960937 0-22.585938 18.375-40.960938 40.960938-40.960938 22.585937 0 40.957031 18.375 40.957031 40.960938 0 22.585937-18.371094 40.960937-40.957031 40.960937zm0-68.269531c-15.058594 0-27.308594 12.25-27.308594 27.308594 0 15.054687 12.25 27.304687 27.308594 27.304687 15.054687 0 27.304687-12.25 27.304687-27.304687 0-15.058594-12.25-27.308594-27.304687-27.308594zm0 0" fill="#0e65e5"/><path d="m75.566406 266.238281c0 18.851563-15.28125 34.136719-34.132812 34.136719-18.851563 0-34.132813-15.285156-34.132813-34.136719 0-18.847656 15.28125-34.132812 34.132813-34.132812 18.851562 0 34.132812 15.285156 34.132812 34.132812zm0 0" fill="#d7e9ff"/><path d="m41.433594 307.199219c-22.585938 0-40.960938-18.375-40.960938-40.960938 0-22.585937 18.375-40.957031 40.960938-40.957031 22.585937 0 40.960937 18.371094 40.960937 40.957031 0 22.585938-18.375 40.960938-40.960937 40.960938zm0-68.265625c-15.054688 0-27.308594 12.25-27.308594 27.304687 0 15.058594 12.253906 27.308594 27.308594 27.308594 15.054687 0 27.304687-12.25 27.304687-27.308594 0-15.054687-12.25-27.304687-27.304687-27.304687zm0 0" fill="#0e65e5"/><path d="m300.847656 266.238281c0 18.851563-15.28125 34.136719-34.132812 34.136719-18.851563 0-34.136719-15.285156-34.136719-34.136719 0-18.847656 15.285156-34.132812 34.136719-34.132812 18.851562 0 34.132812 15.285156 34.132812 34.132812zm0 0" fill="#d7e9ff"/><path d="m266.714844 307.199219c-22.585938 0-40.960938-18.375-40.960938-40.960938 0-22.585937 18.375-40.957031 40.960938-40.957031 22.585937 0 40.957031 18.371094 40.957031 40.957031 0 22.585938-18.371094 40.960938-40.957031 40.960938zm0-68.265625c-15.058594 0-27.308594 12.25-27.308594 27.304687 0 15.058594 12.25 27.308594 27.308594 27.308594 15.054687 0 27.304687-12.25 27.304687-27.308594 0-15.054687-12.25-27.304687-27.304687-27.304687zm0 0" fill="#0e65e5"/><path d="m348.632812 361.8125h-225.28125c-3.769531 0-6.824218-3.054688-6.824218-6.824219v-225.28125c0-3.769531 3.054687-6.828125 6.824218-6.828125h225.28125c3.769532 0 6.828126 3.058594 6.828126 6.828125v225.28125c0 3.769531-3.058594 6.824219-6.828126 6.824219zm-218.453124-13.652344h211.628906v-211.625h-211.628906zm0 0" fill="#0e65e5"/><path d="m157.488281 129.707031c0 18.851563-15.285156 34.132813-34.136719 34.132813-18.847656 0-34.132812-15.28125-34.132812-34.132813 0-18.851562 15.285156-34.132812 34.132812-34.132812 18.851563 0 34.136719 15.28125 34.136719 34.132812zm0 0" fill="#94c1ff"/><path d="m123.351562 170.667969c-22.585937 0-40.957031-18.375-40.957031-40.960938 0-22.585937 18.371094-40.960937 40.957031-40.960937 22.585938 0 40.960938 18.375 40.960938 40.960937 0 22.585938-18.375 40.960938-40.960938 40.960938zm0-68.269531c-15.054687 0-27.304687 12.253906-27.304687 27.308593 0 15.054688 12.25 27.304688 27.304687 27.304688 15.058594 0 27.308594-12.25 27.308594-27.304688 0-15.054687-12.25-27.308593-27.308594-27.308593zm0 0" fill="#0e65e5"/><path d="m382.765625 129.707031c0 18.851563-15.28125 34.132813-34.132813 34.132813-18.851562 0-34.132812-15.28125-34.132812-34.132813 0-18.851562 15.28125-34.132812 34.132812-34.132812 18.851563 0 34.132813 15.28125 34.132813 34.132812zm0 0" fill="#94c1ff"/><path d="m348.632812 170.667969c-22.585937 0-40.960937-18.375-40.960937-40.960938 0-22.585937 18.375-40.960937 40.960937-40.960937 22.585938 0 40.960938 18.375 40.960938 40.960937 0 22.585938-18.375 40.960938-40.960938 40.960938zm0-68.269531c-15.054687 0-27.304687 12.253906-27.304687 27.308593 0 15.054688 12.25 27.304688 27.304687 27.304688 15.058594 0 27.308594-12.25 27.308594-27.304688 0-15.054687-12.25-27.308593-27.308594-27.308593zm0 0" fill="#0e65e5"/><path d="m157.488281 354.988281c0 18.851563-15.285156 34.132813-34.136719 34.132813-18.847656 0-34.132812-15.28125-34.132812-34.132813 0-18.851562 15.285156-34.136719 34.132812-34.136719 18.851563 0 34.136719 15.285157 34.136719 34.136719zm0 0" fill="#94c1ff"/><path d="m123.351562 395.945312c-22.585937 0-40.957031-18.371093-40.957031-40.957031 0-22.585937 18.371094-40.960937 40.957031-40.960937 22.585938 0 40.960938 18.375 40.960938 40.960937 0 22.585938-18.375 40.957031-40.960938 40.957031zm0-68.265624c-15.054687 0-27.304687 12.25-27.304687 27.308593 0 15.054688 12.25 27.304688 27.304687 27.304688 15.058594 0 27.308594-12.25 27.308594-27.304688 0-15.058593-12.25-27.308593-27.308594-27.308593zm0 0" fill="#0e65e5"/><path d="m382.765625 354.988281c0 18.851563-15.28125 34.132813-34.132813 34.132813-18.851562 0-34.132812-15.28125-34.132812-34.132813 0-18.851562 15.28125-34.136719 34.132812-34.136719 18.851563 0 34.132813 15.285157 34.132813 34.136719zm0 0" fill="#94c1ff"/><path d="m348.632812 395.945312c-22.585937 0-40.960937-18.371093-40.960937-40.957031 0-22.585937 18.375-40.960937 40.960937-40.960937 22.585938 0 40.960938 18.375 40.960938 40.960937 0 22.585938-18.375 40.957031-40.960938 40.957031zm0-68.265624c-15.054687 0-27.304687 12.25-27.304687 27.308593 0 15.054688 12.25 27.304688 27.304687 27.304688 15.058594 0 27.308594-12.25 27.308594-27.304688 0-15.058593-12.25-27.308593-27.308594-27.308593zm0 0" fill="#0e65e5"/><path d="m334.980469 361.8125c-3.769531 0-6.828125-3.054688-6.828125-6.824219 0-11.292969 9.1875-20.480469 20.480468-20.480469 3.769532 0 6.828126 3.054688 6.828126 6.824219s-3.058594 6.828125-6.828126 6.828125c-3.761718 0-6.824218 3.0625-6.824218 6.828125 0 3.769531-3.058594 6.824219-6.828125 6.824219zm0 0" fill="#fff"/><path d="m109.699219 136.535156c-3.769531 0-6.824219-3.058594-6.824219-6.828125 0-11.292969 9.183594-20.480469 20.476562-20.480469 3.773438 0 6.828126 3.058594 6.828126 6.828126 0 3.769531-3.054688 6.824218-6.828126 6.824218-3.761718 0-6.824218 3.066406-6.824218 6.828125 0 3.769531-3.058594 6.828125-6.828125 6.828125zm0 0" fill="#fff"/><g fill="#0e65e5"><path d="m321.328125 334.507812c-1.746094 0-3.496094-.667968-4.828125-2l-34.132812-34.132812c-2.667969-2.667969-2.667969-6.988281 0-9.65625 2.664062-2.664062 6.988281-2.664062 9.652343 0l34.132813 34.136719c2.667968 2.664062 2.667968 6.984375 0 9.652343-1.332032 1.332032-3.078125 2-4.824219 2zm0 0"/><path d="m96.046875 334.507812c-1.746094 0-3.492187-.667968-4.828125-2l-34.132812-34.132812c-2.664063-2.667969-2.664063-6.988281 0-9.65625 2.667968-2.664062 6.988281-2.664062 9.652343 0l34.136719 34.136719c2.664062 2.664062 2.664062 6.984375 0 9.652343-1.335938 1.332032-3.082031 2-4.828125 2zm0 0"/><path d="m321.328125 109.226562c-1.746094 0-3.496094-.667968-4.828125-2l-34.132812-34.132812c-2.667969-2.667969-2.667969-6.988281 0-9.652344 2.664062-2.667968 6.988281-2.667968 9.652343 0l34.132813 34.132813c2.667968 2.664062 2.667968 6.988281 0 9.652343-1.332032 1.332032-3.078125 2-4.824219 2zm0 0"/><path d="m96.046875 109.226562c-1.746094 0-3.492187-.667968-4.828125-2l-34.132812-34.132812c-2.664063-2.667969-2.664063-6.988281 0-9.652344 2.667968-2.667968 6.988281-2.667968 9.652343 0l34.136719 34.132813c2.664062 2.664062 2.664062 6.988281 0 9.652343-1.335938 1.332032-3.082031 2-4.828125 2zm0 0"/><path d="m177.964844 211.625c-3.769532 0-6.824219-3.054688-6.824219-6.824219v-27.308593c0-3.769532 3.054687-6.824219 6.824219-6.824219 3.773437 0 6.828125 3.054687 6.828125 6.824219v27.308593c0 3.769531-3.054688 6.824219-6.828125 6.824219zm0 0"/><path d="m191.621094 197.972656h-27.308594c-3.769531 0-6.824219-3.054687-6.824219-6.824218 0-3.773438 3.054688-6.828126 6.824219-6.828126h27.308594c3.769531 0 6.824218 3.054688 6.824218 6.828126 0 3.769531-3.054687 6.824218-6.824218 6.824218zm0 0"/></g></svg>