<?xml version="1.0" encoding="iso-8859-1"?>
<!-- Generator: Adobe Illustrator 19.0.0, SVG Export Plug-In . SVG Version: 6.00 Build 0)  -->
<svg version="1.1" id="Capa_1" xmlns="http://www.w3.org/2000/svg" xmlns:xlink="http://www.w3.org/1999/xlink" x="0px" y="0px"
	 viewBox="0 0 512 512" style="enable-background:new 0 0 512 512;" xml:space="preserve">
<g>
	<path style="fill:#D4E1F4;" d="M279.123,33.583c6.056,6.056,9.91,14.314,9.91,23.123s-3.854,17.067-9.91,23.123
		s-14.314,9.91-23.123,9.91c-18.168,0-33.032-14.865-33.032-33.032c0-9.359,3.854-17.617,9.91-23.123
		c6.056-6.056,14.314-9.91,23.123-9.91C264.809,23.673,273.617,27.527,279.123,33.583z"/>
	<rect x="420.06" y="240.585" style="fill:#D4E1F4;" width="75.424" height="143.14"/>
</g>
<g>
	<path style="fill:#00BBD3;" d="M345.187,237.282c6.056,6.056,9.91,14.314,9.91,23.123c0,9.359-3.854,17.617-9.91,23.123
		c-6.056,6.056-14.314,9.91-23.123,9.91c-18.168,0-33.032-14.865-33.032-33.032c0-8.809,3.854-17.067,9.91-23.123
		c6.056-6.056,14.314-9.91,23.123-9.91S339.682,231.226,345.187,237.282z"/>
	<path style="fill:#00BBD3;" d="M213.058,237.282c6.056,6.056,9.91,14.314,9.91,23.123c0,9.359-3.854,17.617-9.91,23.123
		c-6.056,6.056-14.314,9.91-23.123,9.91c-18.168,0-33.032-14.865-33.032-33.032c0-8.809,3.854-17.067,9.91-23.123
		c6.056-6.056,14.314-9.91,23.123-9.91C198.744,227.372,207.553,231.226,213.058,237.282z"/>
</g>
<rect x="16.516" y="240.585" style="fill:#D4E1F4;" width="73.222" height="143.14"/>
<g>
	<path style="fill:#4DCFE0;" d="M420.06,383.725v105.153h-93.591v-0.551v-95.794h-143.14v95.794v0.551H89.738V383.725v-143.14
		v-73.772h165.161H420.06v73.772V383.725z M355.097,260.404c0-8.809-3.854-17.067-9.91-23.123c-6.056-6.056-14.314-9.91-23.123-9.91
		s-17.617,3.854-23.123,9.91c-6.056,6.056-9.91,14.314-9.91,23.123c0,18.168,14.865,33.032,33.032,33.032
		c9.359,0,17.617-3.854,23.123-9.91C351.243,278.022,355.097,269.763,355.097,260.404z M222.968,260.404
		c0-8.809-3.854-17.067-9.91-23.123c-6.056-6.056-14.314-9.91-23.123-9.91c-8.809,0-17.617,3.854-23.123,9.91
		c-6.056,6.056-9.91,14.314-9.91,23.123c0,18.168,14.865,33.032,33.032,33.032c9.359,0,17.617-3.854,23.123-9.91
		C219.114,278.022,222.968,269.763,222.968,260.404z"/>
	<polygon style="fill:#4DCFE0;" points="326.469,488.327 326.469,488.877 183.329,488.877 183.329,488.327 183.329,392.533 
		326.469,392.533 	"/>
</g>
<g>
	<path style="fill:#3A2C51;" d="M189.935,309.953c-27.527,0-49.548-22.022-49.548-49.548c0-12.662,5.505-25.325,14.865-34.684
		s22.021-14.865,34.684-14.865c13.213,0,26.426,5.505,35.234,14.865c9.359,9.359,14.314,22.021,14.314,34.684
		c0,13.213-5.505,25.875-14.865,34.684C215.811,304.447,203.148,309.953,189.935,309.953z M189.935,243.888
		c-3.854,0-8.258,1.652-11.561,4.955c-3.303,3.303-4.955,7.157-4.955,11.561c0,9.359,7.157,16.516,16.516,16.516
		c4.404,0,8.258-1.652,11.011-4.404c0.551-0.551,0.551-0.551,1.101-1.101c2.753-2.753,4.404-6.606,4.404-11.011
		c0-3.854-1.652-8.258-4.955-11.561l-0.551-0.551C198.194,245.54,193.789,243.888,189.935,243.888z"/>
	<path style="fill:#3A2C51;" d="M322.065,309.953c-27.527,0-49.548-22.022-49.548-49.548c0-12.662,5.505-25.325,14.865-34.684
		c9.359-9.359,22.022-14.865,34.684-14.865c13.213,0,26.426,5.505,35.234,14.865c9.359,9.359,14.314,22.021,14.314,34.684
		c0,13.213-5.505,25.875-14.865,34.684C347.94,304.447,335.277,309.953,322.065,309.953z M322.065,243.888
		c-3.854,0-8.258,1.652-11.561,4.955c-3.303,3.303-4.955,7.157-4.955,11.561c0,9.359,7.157,16.516,16.516,16.516
		c4.404,0,8.258-1.652,11.011-4.404c0.551-0.551,0.551-0.551,1.101-1.101c2.753-2.753,4.404-6.606,4.404-11.011
		c0-3.854-1.652-8.258-4.955-11.561l-0.551-0.551C330.323,245.54,325.918,243.888,322.065,243.888z"/>
	<path style="fill:#3A2C51;" d="M495.484,224.069h-58.908v-57.256c0-9.359-7.157-16.516-16.516-16.516H271.415v-46.796
		c7.708-2.753,14.314-6.606,19.819-12.662c9.359-9.359,14.314-22.022,14.314-34.684s-5.505-25.325-14.314-34.684
		S269.213,6.606,256,6.606c-12.662,0-25.325,5.505-34.684,14.314c-9.359,9.359-14.865,22.572-14.865,35.785
		c0,20.92,13.213,39.088,31.931,46.245v47.346H89.738c-9.359,0-16.516,7.157-16.516,16.516v57.256H16.516
		C7.157,224.069,0,231.226,0,240.585v143.14c0,9.359,7.157,16.516,16.516,16.516h56.705v88.637c0,9.359,7.157,16.516,16.516,16.516
		H420.06c9.359,0,16.516-7.157,16.516-16.516v-88.637h58.908c9.359,0,16.516-7.157,16.516-16.516v-143.14
		C512,231.226,504.843,224.069,495.484,224.069z M243.888,45.695l0.551-0.551c3.303-3.303,7.157-4.955,11.561-4.955
		c3.854,0,8.258,1.652,11.011,4.404l0.551,0.551c3.303,3.303,4.955,7.157,4.955,11.561s-1.652,8.258-4.955,11.561l-0.551,0.551
		c-2.753,2.753-6.606,4.404-11.011,4.404c-9.359,0-16.516-7.157-16.516-16.516C239.484,52.301,241.135,48.447,243.888,45.695z
		 M33.032,367.209V257.101h40.189v110.108H33.032z M309.953,472.361H199.845v-63.312h110.108V472.361z M403.544,472.361h-60.559
		v-79.828c0-9.359-7.157-16.516-16.516-16.516h-143.14c-9.359,0-16.516,7.157-16.516,16.516v79.828h-60.559V183.329h297.29V472.361z
		 M478.968,367.209h-42.391V257.101h42.391V367.209z"/>
</g>
<g>
</g>
<g>
</g>
<g>
</g>
<g>
</g>
<g>
</g>
<g>
</g>
<g>
</g>
<g>
</g>
<g>
</g>
<g>
</g>
<g>
</g>
<g>
</g>
<g>
</g>
<g>
</g>
<g>
</g>
</svg>
