<?xml version="1.0" encoding="utf-8"?>
<!-- Generator: Adobe Illustrator 22.0.0, SVG Export Plug-In . SVG Version: 6.00 Build 0)  -->
<svg version="1.1" id="图层_1" xmlns="http://www.w3.org/2000/svg" xmlns:xlink="http://www.w3.org/1999/xlink" x="0px" y="0px"
	 viewBox="0 0 388 338" style="enable-background:new 0 0 388 338;" xml:space="preserve">
<style type="text/css">
	.st0{opacity:0.2;fill:#009688;enable-background:new    ;}
	.st1{opacity:0.5;fill:#009688;enable-background:new    ;}
	.st2{display:none;fill:#FF005C;}
	.st3{fill:#009688;}
	.st4{opacity:0.55;fill:#004D40;}
	.st5{opacity:0.3;fill:#004D40;}
	.st6{opacity:0.18;}
	.st7{opacity:3.000000e-02;}
	.st8{display:none;opacity:0.4;enable-background:new    ;}
	.st9{opacity:0.2;}
	.st10{opacity:0.3;}
	.st11{display:none;}
	.st12{fill:#004D40;}
	.st13{fill:#FFFFFF;}
	.st14{opacity:0.15;enable-background:new    ;}
</style>
<path class="st0" d="M184,238h138c6,0,11-4.9,11-11V116c0-6.1-5-11-11-11H184c-6.1,0-11,4.9-11,11v111C173,233.1,177.9,238,184,238z
	"/>
<path class="st1" d="M297.6,275.3H108.8c-5.2,0-9.4-4.2-9.4-9.4V76.6c0-5.2,4.2-9.4,9.4-9.4h188.8c5.2,0,9.4,4.2,9.4,9.4v189.3
	C307,271.1,302.8,275.3,297.6,275.3z"/>
<path class="st2" d="M264.6,301.3H89.8c-9,0-16.4-7.3-16.4-16.4V57.6c0-9,7.3-16.4,16.4-16.4h174.8c9,0,16.4,7.3,16.4,16.4v227.3
	C281,293.9,273.7,301.3,264.6,301.3z"/>
<path class="st3" d="M255.1,301.3H99.3c-14.3,0-25.9-11.7-25.9-25.9V67.1c0-14.3,11.7-25.9,25.9-25.9h155.7
	c14.3,0,25.9,11.7,25.9,25.9v208.2C281,289.6,269.3,301.3,255.1,301.3z"/>
<rect x="98.1" y="168" class="st4" width="158" height="107.3"/>
<rect x="98.1" y="67.2" class="st5" width="158" height="101.8"/>
<path class="st6" d="M220,97.6l33,63.5H112.2V126L144,77c1.3-1.9,4-2.5,6-1.4c0.5,0.3,0.9,0.6,1.3,1l31.3,38.4L213.7,96
	c2-1.2,4.8-0.7,6.1,1.1C219.9,97.3,220,97.5,220,97.6z"/>
<path class="st7" d="M131.1,241c-7.1,0-12.9,5.8-12.9,12.9s5.8,12.9,12.9,12.9c7.1,0,12.9-5.8,12.9-12.9S138.2,241,131.1,241z
	 M234.1,176.6c-7.1,0-12.9,5.8-12.9,12.9s5.8,12.9,12.9,12.9s12.9-5.8,12.9-12.9S241.2,176.6,234.1,176.6z M144,176.6
	c-7.1,0-12.9,5.8-12.9,12.9s5.8,12.9,12.9,12.9s12.9-5.8,12.9-12.9S151.1,176.6,144,176.6z M221.2,241c-7.1,0-12.9,5.8-12.9,12.9
	s5.8,12.9,12.9,12.9s12.9-5.8,12.9-12.9S228.4,241,221.2,241z M182.6,215.2c-7.1,0-12.9,5.8-12.9,12.9c0,7.1,5.8,12.9,12.9,12.9
	s12.9-5.8,12.9-12.9C195.5,221,189.7,215.2,182.6,215.2z"/>
<path class="st8" d="M183.2,242.4c0.3,0,0.6,0.3,0.6,0.6c-0.6,4.3-4.3,7.5-8.8,7.4c-4.4-0.1-8.2-3.9-8.3-8.3
	c-0.1-4.5,3.1-8.2,7.4-8.8c0.3,0,0.6,0.2,0.6,0.6v8.5H183.2z"/>
<path class="st9" d="M167.2,249.8h-2.5c-0.4,0-0.8,0.4-0.8,0.8v12.8c0,0.4,0.4,0.8,0.8,0.8h2.5c0.4,0,0.8-0.4,0.8-0.8v-12.8
	C168.1,250.2,167.7,249.8,167.2,249.8z M161,258.1h-2.5c-0.4,0-0.8,0.4-0.8,0.8v4.5c0,0.4,0.4,0.8,0.8,0.8h2.5
	c0.4,0,0.8-0.4,0.8-0.8v-4.5C161.9,258.5,161.5,258.1,161,258.1L161,258.1z M179.6,247.7h-2.5c-0.4,0-0.8,0.4-0.8,0.8v14.9
	c0,0.4,0.4,0.8,0.8,0.8h2.5c0.4,0,0.8-0.4,0.8-0.8v-14.9C180.5,248.1,180.1,247.7,179.6,247.7z M173.4,253.9H171
	c-0.4,0-0.8,0.4-0.8,0.8v8.7c0,0.4,0.4,0.8,0.8,0.8h2.5c0.4,0,0.8-0.4,0.8-0.8v-8.7C174.3,254.3,173.9,253.9,173.4,253.9z"/>
<path class="st10" d="M244.7,244.7v13.9c0,2.5-3,3.8-4.8,2l-3.8-3.8L224.8,268c-1.5,1.5-3.8,1.5-5.3,0l-8.6-8.6l-5.4,5.4
	c-0.7,0.7-1.9,0.7-2.7,0c0,0,0,0,0,0l-2.7-2.7c-0.7-0.7-0.7-1.9,0-2.7c0,0,0,0,0,0l8.1-8.1c1.5-1.5,3.8-1.5,5.3,0l8.6,8.6l8.6-8.6
	l-3.8-3.8c-1.8-1.8-0.5-4.8,2-4.8h13.8C243.9,242.9,244.7,243.7,244.7,244.7z"/>
<path class="st11" d="M234.1,223.9c0.1,0.9-0.7,1.6-1.6,1.6H211v-21.6c0-0.9,0.7-1.6,1.6-1.6C224.1,203.1,233.3,212.3,234.1,223.9z"
	/>
<g>
	
		<image style="overflow:visible;opacity:0.6;enable-background:new    ;" width="200" height="158" xlink:href="BACFDF2F.png"  transform="matrix(1 0 0 1 41 94)">
	</image>
	<g>
		<path class="st12" d="M216.1,238H61.8c-6,0-10.8-4.9-10.8-10.9V115.7c0-6,4.9-10.8,10.8-10.8h154.3c6,0,10.9,4.9,10.9,10.8v111.5
			C227,233.1,222.1,238,216.1,238z"/>
	</g>
</g>
<g>
	<path class="st13" d="M137.6,129.2v88h-20.3l-1.3-7.5c-2.3,5.1-6.8,8.7-18.1,8.7c-19.8,0-24.3-12.2-24.3-32.4
		c0-18.3,4.5-32.4,24.3-32.4c10.9,0,15.5,2.9,17.8,7.4v-31.7H137.6z M116.8,185.9c0-10.1-2-16.7-10.7-16.7c-9,0-10.3,7.1-10.3,16.7
		c0,10.2,1.4,16.5,10.3,16.5C115,202.4,116.8,196.8,116.8,185.9z"/>
</g>
<path class="st14" d="M133.4,257.8c0.4,0,0.6,0.3,0.6,0.7c-0.6,4.4-4.5,7.8-9.1,7.7c-4.6-0.2-8.5-4-8.6-8.6
	c-0.2-4.6,3.2-8.5,7.7-9.1c0.4,0,0.7,0.2,0.7,0.6v8.8H133.4z"/>
<path class="st10" d="M135.2,255.4c0,0.3-0.3,0.6-0.6,0.6h-8.3v-8.3c0-0.3,0.3-0.6,0.6-0.6C131.4,247.4,134.9,250.9,135.2,255.4z"/>
</svg>
