<?xml version="1.0" encoding="utf-8"?>
<!-- Generator: Adobe Illustrator 22.0.0, SVG Export Plug-In . SVG Version: 6.00 Build 0)  -->
<svg version="1.1" id="图层_1" xmlns="http://www.w3.org/2000/svg" xmlns:xlink="http://www.w3.org/1999/xlink" x="0px" y="0px"
	 viewBox="0 0 564 171" style="enable-background:new 0 0 564 171;" xml:space="preserve">
<style type="text/css">
	.st0{opacity:0.7;fill:#37474F;stroke:#FFFFFF;stroke-width:6;stroke-miterlimit:10;enable-background:new    ;}
	.st1{opacity:0.7;fill:#CFD8DC;stroke:#FFFFFF;stroke-width:6;stroke-miterlimit:10;enable-background:new    ;}
	.st2{opacity:0.9;fill:#37474F;stroke:#FFFFFF;stroke-width:6;stroke-miterlimit:10;enable-background:new    ;}
	.st3{fill:#FFFFFF;}
</style>
<path class="st0" d="M137.4,101.7h48.2c2.1,0,3.8-1.1,3.8-2.5v-25c0-1.4-1.7-2.5-3.8-2.5h-48.2c-2.1,0-3.8,1.1-3.8,2.5v25
	C133.5,100.6,135.3,101.7,137.4,101.7z"/>
<path class="st0" d="M117.7,118.2h56.1c2.4,0,4.5-2.4,4.5-5.4V58.6c0-3-2-5.4-4.5-5.4h-56.1c-2.5,0-4.5,2.4-4.5,5.4v54.2
	C113.2,115.8,115.2,118.2,117.7,118.2z"/>
<path class="st1" d="M158.2,135.7h-91c-2.5,0-4.5-2-4.5-4.5v-91c0-2.5,2-4.5,4.5-4.5h90.9c2.5,0,4.5,2,4.5,4.5v91
	C162.7,133.7,160.7,135.7,158.2,135.7z"/>
<path class="st2" d="M136.4,148.2H37c-5.1,0-9.3-3.5-9.3-7.9V31.1c0-4.3,4.2-7.9,9.3-7.9h99.4c5.1,0,9.3,3.5,9.3,7.9v109.2
	C145.8,144.7,141.6,148.2,136.4,148.2z"/>
<g>
	<path class="st3" d="M268.8,91l-38.4,2.4c0.7,7.1,5.9,10.3,15.2,10.3c7.9,0,17-2.3,20.7-4.3v14.1c-3.7,2.4-13.1,4.6-24.4,4.6
		c-18.8,0-30.2-6.8-30.2-31.6s11.4-31.6,30.9-31.6c21.4,0,26.7,10.1,26.7,27.2C269.3,86.2,269,89.7,268.8,91z M252.6,78.8
		c0-5.6-1.7-10-9.9-10c-8.8,0-12,3-12.4,11.8L252.6,78.8z"/>
	<path class="st3" d="M273.6,86.4c0-24.8,11.3-31.6,30.4-31.6s30.4,6.8,30.4,31.6S323.1,118,304,118S273.6,111.2,273.6,86.4z
		 M315.5,86.4c0-13.6-2.8-17.9-11.4-17.9c-8.7,0-11.4,4.3-11.4,17.9s2.8,17.7,11.4,17.7C312.8,104.1,315.5,100.1,315.5,86.4z"/>
	<path class="st3" d="M378.4,54.9l-0.5,16.7h-1.6c-7.6,0-14.9,2.7-16.2,12.2v33.1h-18.7V56h18.7v10.7c3.6-9.8,9.9-11.8,17-11.8
		C377.1,54.9,378.4,54.9,378.4,54.9z"/>
	<path class="st3" d="M382.3,56H401v60.9h-18.7V56z"/>
	<path class="st3" d="M407.5,86.4c0-24.8,11.3-31.6,30.4-31.6s30.4,6.8,30.4,31.6S457,118,437.9,118S407.5,111.2,407.5,86.4z
		 M449.3,86.4c0-13.6-2.8-17.9-11.4-17.9c-8.7,0-11.4,4.3-11.4,17.9s2.8,17.7,11.4,17.7C446.6,104.1,449.3,100.1,449.3,86.4z"/>
	<path class="st3" d="M533,75.5v41.4h-18.7V80c0-7.9-1.9-10.1-9.4-10.1c-6.4,0-9.7,2.4-11,7.1v39.9h-18.7V56h18.7v6.9
		c3.2-5.1,9.6-8,19.1-8C527.6,54.9,533,61.4,533,75.5z"/>
</g>
</svg>
