<?xml version="1.0" encoding="utf-8"?>
<!-- Generator: Adobe Illustrator 22.0.0, SVG Export Plug-In . SVG Version: 6.00 Build 0)  -->
<svg version="1.1" id="图层_1" xmlns="http://www.w3.org/2000/svg" xmlns:xlink="http://www.w3.org/1999/xlink" x="0px" y="0px"
	 viewBox="0 0 841 129" style="enable-background:new 0 0 841 129;" xml:space="preserve">
<style type="text/css">
	.st0{fill:#FFFFFF;}
</style>
<g>
	<path class="st0" d="M97.4,98.4H76.2L61.1,72.7h-2.4v25.7H40.9V36.5h17.8v22.3h2.4l15-22.3h20.4L76,65.1L97.4,98.4z"/>
	<path class="st0" d="M135.9,85.4h-23.2l-4.4,13H89.7l22.8-61.9h24l22.6,61.9h-18.9L135.9,85.4z M131.2,71.1l-6.3-19.4h-1.1
		l-6.4,19.4H131.2z"/>
	<path class="st0" d="M157.8,36.5h26.8l12.9,38.8h0.5V36.5h17.3v61.9h-24.7L175.9,57h-0.5v41.4h-17.5V36.5z"/>
	<path class="st0" d="M220.4,36.5h24.1c19.5,0,25.6,6.1,25.6,22c0,17.4-7.1,23-25.6,23h-6.3v16.9h-17.8V36.5z M241.9,67.4
		c7.4,0,10.1-2,10.1-8.5c0-6.9-2.9-8.8-10.1-8.8h-3.7v17.3H241.9z"/>
	<path class="st0" d="M271.1,67.4c0-25.4,10.8-31.9,29.2-31.9c18.5,0,29.2,6.4,29.2,31.9c0,25.5-10.7,31.9-29.2,31.9
		C281.9,99.3,271.1,93,271.1,67.4z M310.8,67.4c0-13.5-2.1-17.5-10.5-17.5s-10.4,4-10.4,17.5c0,13.3,2,17.2,10.4,17.2
		S310.8,80.7,310.8,67.4z"/>
	<path class="st0" d="M387.1,67.4c0,23.9-11.9,31-30.4,31H333V36.5h23.7C375.3,36.5,387.1,41.6,387.1,67.4z M368.7,67.4
		c0-12.9-3-16.2-13-16.2h-4.9v32h4.9C365.9,83.2,368.7,79.8,368.7,67.4z"/>
	<path class="st0" d="M402.9,36.5h4.4l14.1,56.9h0.5l14.6-48.7h5.8l14.6,48.7h0.5l14-56.9h4.3L460,98.4h-5.5l-14.8-48.9h-0.5
		l-14.9,48.9h-5.5L402.9,36.5z"/>
	<path class="st0" d="M474.5,74.3c0-18.8,5.9-25,20.5-25c14.6,0,20.7,6.2,20.7,25c0,18.8-6.1,25-20.7,25
		C480.4,99.3,474.5,93.1,474.5,74.3z M511.6,74.3c0-15.9-3.8-21.3-16.5-21.3c-12.7,0-16.3,5.4-16.3,21.3c0,15.9,3.7,21.3,16.3,21.3
		C507.8,95.6,511.6,90.2,511.6,74.3z"/>
	<path class="st0" d="M543.5,49.3l-0.2,3.7h-1.1C536,53,529.9,55,527,64.1v34.3h-4V50.2h4v8.7c2.7-7.9,9.8-9.6,15.5-9.6H543.5z"/>
	<path class="st0" d="M579.9,98.4h-5.4l-21.2-23.7h-2.8v23.7h-4V30.6h4v40.5h2.7l20.2-20.9h5.2l-22.1,22.5L579.9,98.4z"/>
	<path class="st0" d="M577.2,96.7v-4.3c3.5,1.3,10.7,3,18.4,3c10.8,0,16.8-3.7,16.8-13.2c0-9-4.3-11.8-16.1-14.7
		c-12.6-3-17.3-6-17.3-16.2c0-9.9,5.9-15.9,19.4-15.9c5.3,0,12,1.1,15.2,2.2v4.1c-3.9-1.5-9.5-2.5-15.4-2.5c-9.7,0-15,3.3-15,12.1
		c0,7.1,2.6,9.8,14.4,12.5c13.1,3.1,19,6.6,19,18.4c0,12-7.6,17-21.1,17C587.5,99.3,579.9,97.8,577.2,96.7z"/>
	<path class="st0" d="M640.8,94.7v3.7c-1.9,0.4-4.2,0.6-6.2,0.6c-8.8,0-12.1-2.2-12.1-14.9V53.9h-7.8v-3.7h7.8V38.8h4v11.4h13.3v3.7
		h-13.3v30.3c0,8.7,1.7,11.1,7.9,11.1C637,95.3,638.8,95.1,640.8,94.7z"/>
	<path class="st0" d="M678.7,64.4v34h-3.4l-0.6-8.6c-2.9,6.1-10.3,9.5-18.9,9.5c-11.5,0-16.2-5.1-16.2-14c0-12.3,8.4-15,18.9-15
		h16.2V65c0-7.6-2.5-12-13.5-12c-3.1,0-7.1,0.4-10.8,1.2v-3.9c3.6-0.6,7.6-1,11.1-1C675.9,49.3,678.7,55.9,678.7,64.4z M674.7,84.3
		V73.9h-15.7c-9.9,0-15.4,1.8-15.4,11.4c0,7,4.2,10.3,12.1,10.3C665.1,95.5,672.2,91.6,674.7,84.3z"/>
	<path class="st0" d="M707,94.7v3.7c-1.9,0.4-4.2,0.6-6.2,0.6c-8.8,0-12.1-2.2-12.1-14.9V53.9h-7.8v-3.7h7.8V38.8h4v11.4H706v3.7
		h-13.3v30.3c0,8.7,1.7,11.1,7.9,11.1C703.1,95.3,704.9,95.1,707,94.7z"/>
	<path class="st0" d="M708.5,36.5c0-2.6,0.6-2.9,2.8-2.9c2,0,2.7,0.4,2.7,2.9c0,2.6-0.7,2.9-2.7,2.9
		C709.1,39.5,708.5,39.1,708.5,36.5z M709.2,50.2h4v48.2h-4V50.2z"/>
	<path class="st0" d="M720.7,74.3c0-18.8,5.9-25,20.5-25s20.7,6.2,20.7,25c0,18.8-6.1,25-20.7,25S720.7,93.1,720.7,74.3z
		 M757.8,74.3c0-15.9-3.8-21.3-16.5-21.3s-16.3,5.4-16.3,21.3c0,15.9,3.7,21.3,16.3,21.3C754,95.6,757.8,90.2,757.8,74.3z"/>
	<path class="st0" d="M805.2,64.7v33.7h-4V67.2c0-10.1-2.3-14.2-12.1-14.2c-6.5,0-13.8,1.9-15.8,11.6v33.8h-4V50.2h4v8.3
		c1.7-6.8,9.5-9.2,16.2-9.2C801.7,49.3,805.2,55.1,805.2,64.7z"/>
</g>
<g>
</g>
<g>
</g>
<g>
</g>
<g>
</g>
<g>
</g>
<g>
</g>
<g>
</g>
<g>
</g>
<g>
</g>
<g>
</g>
<g>
</g>
<g>
</g>
<g>
</g>
<g>
</g>
<g>
</g>
</svg>
