<?xml version="1.0" encoding="utf-8"?>
<!-- Generator: Adobe Illustrator 22.0.0, SVG Export Plug-In . SVG Version: 6.00 Build 0)  -->
<svg version="1.1" id="图层_1" xmlns="http://www.w3.org/2000/svg" xmlns:xlink="http://www.w3.org/1999/xlink" x="0px" y="0px"
	 viewBox="0 0 589.3 206" style="enable-background:new 0 0 589.3 206;" xml:space="preserve">
<style type="text/css">
	.st0{opacity:0.6;fill:#D11E34;}
	.st1{opacity:0.9;fill:#9E9E9E;}
	.st2{opacity:0.7;fill:#9E9E9E;}
	.st3{opacity:0.8;fill:#444444;}
	.st4{fill:#444444;}
	.st5{fill:#E5E5E5;}
	.st6{fill:#C8C8C8;}
	.st7{fill:#EAEAEA;}
	.st8{opacity:0.7;fill:#D11E34;}
</style>
<path class="st0" d="M162.5,22.7L162.5,22.7c6.6,0,12,5.4,12,12v139c0,6.6-5.4,12-12,12l0,0c-6.6,0-12-5.4-12-12v-139
	C150.5,28,155.9,22.7,162.5,22.7z"/>
<path class="st1" d="M332.1,24.5L332.1,24.5c5.6-3.5,13-1.8,16.5,3.8l87.1,139.4c3.5,5.6,1.8,13-3.8,16.5l0,0
	c-5.6,3.5-13,1.8-16.5-3.8L328.3,41C324.8,35.4,326.5,28,332.1,24.5z"/>
<path class="st2" d="M338.5,22.7L338.5,22.7c6.6,0,12,5.4,12,12v139c0,6.6-5.4,12-12,12l0,0c-6.6,0-12-5.4-12-12v-139
	C326.5,28,331.9,22.7,338.5,22.7z"/>
<path class="st3" d="M344.3,24.5L344.3,24.5c5.6,3.5,7.3,10.9,3.8,16.5L261,180.4c-3.5,5.6-10.9,7.3-16.5,3.8l0,0
	c-5.6-3.5-7.3-10.9-3.8-16.5l87.1-139.4C331.2,22.7,338.6,21,344.3,24.5z"/>
<path class="st4" d="M245,24.7L245,24.7c5.6-3.5,13-1.8,16.5,3.8l87.1,139.4c3.5,5.6,1.8,13-3.8,16.5l0,0c-5.6,3.5-13,1.8-16.5-3.8
	L241.2,41.3C237.7,35.6,239.4,28.2,245,24.7z"/>
<path class="st0" d="M250.5,22.7L250.5,22.7c6.6,0,12,5.4,12,12v139c0,6.6-5.4,12-12,12l0,0c-6.6,0-12-5.4-12-12v-139
	C238.5,28,243.9,22.7,250.5,22.7z"/>
<path class="st2" d="M426.5,22.7L426.5,22.7c6.6,0,12,5.4,12,12v139c0,6.6-5.4,12-12,12l0,0c-6.6,0-12-5.4-12-12v-139
	C414.5,28,419.9,22.7,426.5,22.7z"/>
<path class="st5" d="M468,40.4L468,40.4c6.6,0,12,4.2,12,9.4v109.4c0,5.2-5.4,9.4-12,9.4l0,0c-6.6,0-12-4.2-12-9.4V49.9
	C456,44.7,461.4,40.4,468,40.4z"/>
<path class="st5" d="M121,40.3L121,40.3c6.6,0,12,4.2,12,9.4v109.4c0,5.2-5.4,9.4-12,9.4l0,0c-6.6,0-12-4.2-12-9.4V49.7
	C109,44.5,114.4,40.3,121,40.3z"/>
<path class="st6" d="M509.9,57.7L509.9,57.7c6.6,0,12,5.4,12,12v69.8c0,6.6-5.4,12-12,12l0,0c-6.6,0-12-5.4-12-12V69.7
	C497.9,63.1,503.3,57.7,509.9,57.7z"/>
<path class="st6" d="M78.5,57.5L78.5,57.5c6.6,0,12,5.4,12,12v69.8c0,6.6-5.4,12-12,12l0,0c-6.6,0-12-5.4-12-12V69.5
	C66.5,62.9,71.9,57.5,78.5,57.5z"/>
<path class="st7" d="M551.6,82.8L551.6,82.8c6.6,0,12,5.4,12,12v19.5c0,6.6-5.4,12-12,12l0,0c-6.6,0-12-5.4-12-12V94.8
	C539.6,88.2,545,82.8,551.6,82.8z"/>
<path class="st7" d="M36.5,82.6L36.5,82.6c6.6,0,12,5.4,12,12v19.5c0,6.6-5.4,12-12,12l0,0c-6.6,0-12-5.4-12-12V94.6
	C24.5,88,29.9,82.6,36.5,82.6z"/>
<path class="st8" d="M156.1,24.5L156.1,24.5c5.6-3.5,13-1.8,16.5,3.8l87.1,139.4c3.5,5.6,1.8,13-3.8,16.5l0,0
	c-5.6,3.5-13,1.8-16.5-3.8L152.3,41C148.8,35.4,150.5,28,156.1,24.5z"/>
<g>
</g>
<g>
</g>
<g>
</g>
<g>
</g>
<g>
</g>
<g>
</g>
<g>
</g>
<g>
</g>
<g>
</g>
<g>
</g>
<g>
</g>
<g>
</g>
<g>
</g>
<g>
</g>
<g>
</g>
</svg>
