<?xml version="1.0" encoding="utf-8"?>
<!-- Generator: Adobe Illustrator 22.0.0, SVG Export Plug-In . SVG Version: 6.00 Build 0)  -->
<svg version="1.1" id="图层_1" xmlns="http://www.w3.org/2000/svg" xmlns:xlink="http://www.w3.org/1999/xlink" x="0px" y="0px"
	 viewBox="0 0 600 600" style="enable-background:new 0 0 600 600;" xml:space="preserve">
<style type="text/css">
	.st0{fill:#FFFFFF;}
	.st1{fill:none;}
</style>
<g>
	<path class="st0" d="M67,600c0-115.4,0-230.6,0-346c62.6,0,125.3,0,188,0c0,115.3,0,230.6,0,346C192.4,600,129.7,600,67,600z
		 M127.2,536.2c18.6,0,37,0,55.5,0c0-5.5,0-11,0-16.5c3.6,1.4,6,3.9,8.3,6.7c2.3,3,2.3,6.5,2.8,10c0.7-3.3,0.1-6.7,2.2-9.7
		c2-2.9,4.1-5.4,7.7-6.9c0,5.6,0,11,0,16.5c2.4,0,4.6,0,6.8,0c0-73.5,0-146.8,0-220.1c-33.2,0-66.4,0-99.4,0c0,73.5,0,146.7,0,220.1
		c2.4,0,4.7,0,7.2,0c0-5.8,0-11.6,0-17.4c3,1.1,5.1,3,6.7,5.4C127.1,527.8,127.6,531.9,127.2,536.2z"/>
	<path d="M127.2,536.2c0.4-4.4-0.1-8.4-2.5-12c-1.6-2.3-3.7-4.4-6.7-5.4c0,5.9,0,11.6,0,17.4c-2.5,0-4.8,0-7.2,0
		c0-73.4,0-146.7,0-220.1c33.1,0,66.2,0,99.4,0c0,73.3,0,146.6,0,220.1c-2.2,0-4.4,0-6.8,0c0-5.4,0-10.9,0-16.5
		c-3.5,1.5-5.6,4-7.7,6.9c-2.1,3-1.5,6.4-2.2,9.7c-0.4-3.5-0.4-7-2.8-10c-2.2-2.9-4.6-5.4-8.3-6.7c0,5.5,0,11,0,16.5
		C164.1,536.2,145.8,536.2,127.2,536.2z M205.2,532c0.2,0,0.3,0,0.4,0c0-8.9,0-17.7,0-26.7c-0.7,0-1.3,0-1.9,0
		c-10.5,0-21.1,0-31.6,0c-0.4,0-0.9,0.1-1.3-0.1c-0.3-0.1-0.7-0.5-0.7-0.9c-0.1-0.2,0.4-0.6,0.7-0.7c0.4-0.1,0.9-0.1,1.3-0.1
		c10.6,0,21.2,0,31.8,0c0.6,0,1.2,0,1.8,0c0-62.1,0-124.1,0-186c-16.1,0-32.1,0-48.3,0c0,20,0,39.9,0,59.9c-6.1,0.2-10.9,2.6-14.2,8
		c4.9,0,9.5,0,14.2,0c0,21.9,0,43.7,0,65.5c-6.4,0.2-11.3,2.8-14.6,8.7c5.1,0,9.8,0,14.6,0c0,2.3,0,4.5,0,6.8c-4.9,0-9.6,0-14.5,0
		c1.8,4.1,6.2,8.6,14.6,8.9c0,18.8,0,37.7,0,56.5c7.9,0,15.7,0,23.6,0c0-4.7,0-9.3,0-14.1c6.4,0.8,9.8,5,12.5,9.8
		c4.8-7.2,8.6-10.4,11.7-9.6C205.2,522.6,205.2,527.4,205.2,532z M155.7,462.1c-0.1-0.4-0.1-0.7-0.1-0.7c-5,0-10,0-15.3,0
		c0.2-1,0.3-1.7,0.6-2.3c3.4-5.5,8.1-9.2,14.7-9.7c0-20.2,0-40,0-59.9c-13.4,0-26.7,0-39.8,0c0,24.3,0,48.4,0,72.6
		C129.1,462.1,142.4,462.1,155.7,462.1z M115.7,387.6c13.4,0,26.7,0,39.9,0c0-0.2,0-0.3,0-0.4c-4.8,0-9.6,0-14.3,0
		c-0.6-2.2,0.9-3.4,2-4.7c3.1-3.9,7.3-6,12.4-6.4c0-19.5,0-38.9,0-58.3c-13.4,0-26.7,0-39.8,0C115.7,341.1,115.7,364.4,115.7,387.6z
		 M115.8,463.9c0,22.9,0,45.5,0,68.2c0.1,0,0.3,0,0.4,0c0-5.2,0-10.3,0-15.6c6.5,1.7,11.7,6.9,12.8,15.5c8.8,0,17.7,0,26.6,0
		c0-18.3,0-36.6,0-55c-3.4-0.7-6.7-1.4-9.5-3.8c-3.4-2.9-5.8-6.3-5.5-8.5c5,0,9.9,0,15,0c0.1-0.2,0.1-0.4,0.1-0.7
		c-0.6-0.1-1.1-0.3-1.7-0.3c-8.8,0-17.7,0-26.5,0C123.7,463.9,119.8,463.9,115.8,463.9z M114,533.6c0-72.1,0-144,0-216.1
		c-0.6,0.1-1.1,0.1-1.5,0.2c0,72.4,0,144.7,0,217.1c1.3-0.4,2.8,0.4,4.3-0.9C115.6,533.8,114.9,533.7,114,533.6z M208.7,534.6
		c0-0.7,0-1.3,0-1.9c0-71.1,0-142.1,0-213.1c0-0.4,0.1-0.8-0.1-1.1c-0.2-0.4-0.6-0.7-0.9-0.9c-0.2,0.1-0.3,0.2-0.4,0.3
		c0,71.9,0,143.9,0,215.6c-0.8,0.5-1.9-0.4-2.3,1.1C206.2,534.6,207.4,534.6,208.7,534.6z M181.1,533.8c-17.5,0-34.8,0-52.1,0
		c-0.1,0.2-0.1,0.4-0.1,0.6c0.6,0.1,1.1,0.3,1.7,0.3c16.3,0,32.6,0,48.8,0c0.4,0,0.8,0.1,1.2-0.1
		C180.7,534.6,180.8,534.2,181.1,533.8z"/>
	<path class="st0" d="M205.2,532c0-4.7,0-9.4,0-14c-3.1-0.7-7,2.4-11.7,9.6c-2.8-4.9-6.1-9.1-12.5-9.8c0,4.8,0,9.5,0,14.1
		c-7.9,0-15.6,0-23.6,0c0-18.9,0-37.7,0-56.5c-8.3-0.4-12.7-4.8-14.6-8.9c4.8,0,9.6,0,14.5,0c0-2.3,0-4.5,0-6.8c-4.7,0-9.5,0-14.6,0
		c3.3-5.9,8.2-8.4,14.6-8.7c0-21.8,0-43.6,0-65.5c-4.6,0-9.3,0-14.2,0c3.4-5.4,8.1-7.8,14.2-8c0-20,0-39.8,0-59.9
		c16.1,0,32.2,0,48.3,0c0,61.9,0,123.8,0,186c-0.6,0-1.2,0-1.8,0c-10.6,0-21.2,0-31.8,0c-0.4,0-0.9-0.1-1.3,0.1
		c-0.3,0.1-0.8,0.5-0.7,0.7c0.1,0.3,0.4,0.7,0.7,0.9c0.4,0.2,0.9,0.1,1.3,0.1c10.5,0,21.1,0,31.6,0c0.6,0,1.2,0,1.9,0
		c0,9,0,17.8,0,26.7C205.4,532,205.3,532,205.2,532z M199.5,402.9c0,12.6,0,25.1,0,37.7c2,0,3.9,0,5.8,0c0-12.6,0-25.1,0-37.7
		C203.4,402.9,201.5,402.9,199.5,402.9z M167.7,360.3c4.1,0,8.1,0,12.1,0c0-10.1,0-20.1,0-30.1c-4.1,0-8.1,0-12.1,0
		C167.7,340.2,167.7,350.3,167.7,360.3z M193.4,360.3c0-10.2,0-20.2,0-30.1c-4,0-7.9,0-11.7,0c0,10.1,0,20.1,0,30.1
		C185.6,360.3,189.4,360.3,193.4,360.3z M196.3,326.4c0-1.8,0-3.4,0-5c-10.4,0-20.7,0-30.9,0c0,1.7,0,3.4,0,5
		C175.8,326.4,186,326.4,196.3,326.4z M191.8,361.1c-7.2,0-14.3,0-21.3,0c0,3.8,0,7.6,0,11.2c7.2,0,14.2,0,21.3,0
		C191.8,368.6,191.8,364.9,191.8,361.1z M191.9,447.1c4.6,0,9,0,13.4,0c0-2,0-3.9,0-5.7c-4.5,0-8.9,0-13.4,0
		C191.9,443.4,191.9,445.1,191.9,447.1z"/>
	<path class="st0" d="M155.7,462.1c-13.4,0-26.7,0-40,0c0-24.2,0-48.3,0-72.6c13.2,0,26.5,0,39.8,0c0,19.9,0,39.7,0,59.9
		c-6.7,0.4-11.3,4.1-14.7,9.7c-0.3,0.5-0.3,1.3-0.6,2.3c5.3,0,10.3,0,15.3,0C155.7,461.5,155.7,461.7,155.7,462.1z M125.4,405.2
		c0,9.5,0,18.9,0,28.2c3.6,0,7.2,0,10.7,0c0-9.5,0-18.8,0-28.2C132.5,405.2,129,405.2,125.4,405.2z"/>
	<path class="st0" d="M115.7,387.6c0-23.2,0-46.5,0-69.8c13.2,0,26.5,0,39.8,0c0,19.3,0,38.7,0,58.3c-5,0.4-9.2,2.5-12.4,6.4
		c-1,1.3-2.6,2.5-2,4.7c4.7,0,9.5,0,14.3,0c0,0.2,0,0.3,0,0.4C142.4,387.6,129.2,387.6,115.7,387.6z M124,358c3.8,0,7.4,0,11.1,0
		c0-10.1,0-20.1,0-30.1c-3.8,0-7.4,0-11.1,0C124,337.9,124,347.9,124,358z M135.9,358c3.7,0,7.2,0,10.7,0c0-10.1,0-20.2,0-30.1
		c-3.6,0-7.2,0-10.7,0C135.9,337.9,135.9,347.9,135.9,358z M146.1,319.7c-7,0-13.9,0-20.6,0c0,1.8,0,3.6,0,5.3c7,0,13.7,0,20.6,0
		C146.1,323.2,146.1,321.5,146.1,319.7z"/>
	<path class="st0" d="M115.8,463.9c4,0,7.9,0,11.8,0c8.8,0,17.7,0,26.5,0c0.6,0,1.1,0.2,1.7,0.3c-0.1,0.2-0.1,0.4-0.1,0.7
		c-5,0-10,0-15,0c-0.4,2.2,2,5.6,5.5,8.5c2.8,2.3,6.1,3.1,9.5,3.8c0,18.3,0,36.6,0,55c-8.9,0-17.8,0-26.6,0
		c-1.1-8.6-6.3-13.8-12.8-15.5c0,5.2,0,10.4,0,15.6c-0.1,0-0.3,0-0.4,0C115.8,509.4,115.8,486.7,115.8,463.9z M126,479.6
		c0,13.8,0,27.4,0,40.9c6.4,0,12.7,0,19,0c0-13.7,0-27.3,0-40.9C138.7,479.6,132.4,479.6,126,479.6z M125.4,468.7
		c-0.2-0.3-0.4-0.8-0.6-0.8c-0.4,0-0.9,0.1-1.1,0.4c-2.2,2.1-4.3,4.2-6.4,6.3c-0.3,0.3-0.2,1-0.3,1.5c0.5-0.2,1.2-0.1,1.5-0.4
		c2.1-2,4.1-4,6.2-6C124.9,469.3,125.1,469,125.4,468.7z"/>
	<g>
		<path class="st1" d="M114,533.6c0.9,0.1,1.7,0.1,2.8,0.2c-1.5,1.4-2.9,0.5-4.3,0.9c0-72.4,0-144.7,0-217.1
			c0.4-0.1,0.9-0.1,1.5-0.2C114,389.6,114,461.6,114,533.6z"/>
	</g>
	<path class="st0" d="M208.7,534.6c-1.3,0-2.5,0-3.7,0c0.3-1.5,1.5-0.5,2.3-1.1c0-71.8,0-143.7,0-215.6c0.2-0.1,0.3-0.2,0.4-0.3
		c0.3,0.3,0.7,0.5,0.9,0.9c0.2,0.3,0.1,0.8,0.1,1.1c0,71.1,0,142.1,0,213.1C208.7,533.3,208.7,533.9,208.7,534.6z"/>
	<path class="st0" d="M181.1,533.8c-0.3,0.4-0.4,0.8-0.6,0.8c-0.3,0.1-0.8,0.1-1.2,0.1c-16.3,0-32.6,0-48.8,0
		c-0.6,0-1.1-0.2-1.7-0.3c0.1-0.2,0.1-0.4,0.1-0.6C146.2,533.8,163.6,533.8,181.1,533.8z"/>
	<path d="M199.5,402.9c2,0,3.9,0,5.8,0c0,12.6,0,25,0,37.7c-1.9,0-3.8,0-5.8,0C199.5,428.1,199.5,415.5,199.5,402.9z M201.2,404.5
		c0,11.6,0,23,0,34.4c0.9,0,1.6,0,2.4,0c0-11.5,0-23,0-34.4C202.8,404.5,202.1,404.5,201.2,404.5z"/>
	<path d="M167.7,360.3c0-10.1,0-20,0-30.1c4,0,7.9,0,12.1,0c0,10,0,20,0,30.1C175.8,360.3,171.8,360.3,167.7,360.3z M178.1,358.7
		c0-9.1,0-18,0-26.9c-3,0-5.8,0-8.7,0c0,9,0,18,0,26.9C172.4,358.7,175.2,358.7,178.1,358.7z"/>
	<path d="M193.4,360.3c-4,0-7.8,0-11.7,0c0-10.1,0-20,0-30.1c3.9,0,7.7,0,11.7,0C193.4,340.1,193.4,350.1,193.4,360.3z M191.7,358.7
		c0-9.1,0-18,0-26.9c-2.9,0-5.7,0-8.4,0c0,9,0,17.9,0,26.9C186.1,358.7,188.8,358.7,191.7,358.7z"/>
	<path d="M196.3,326.4c-10.3,0-20.6,0-30.9,0c0-1.7,0-3.3,0-5c10.2,0,20.5,0,30.9,0C196.3,322.9,196.3,324.6,196.3,326.4z
		 M167,324.7c9.3,0,18.5,0,27.6,0c0-0.7,0-1.1,0-1.8c-9.3,0-18.4,0-27.6,0C167,323.5,167,324,167,324.7z"/>
	<path d="M191.8,361.1c0,3.8,0,7.5,0,11.2c-7.1,0-14.1,0-21.3,0c0-3.7,0-7.4,0-11.2C177.5,361.1,184.5,361.1,191.8,361.1z
		 M172,370.7c6.1,0,12.1,0,18,0c0-2.7,0-5.4,0-7.9c-6.1,0-12,0-18,0C172,365.4,172,368,172,370.7z"/>
	<path d="M191.9,447.1c0-2,0-3.8,0-5.7c4.5,0,8.8,0,13.4,0c0,1.8,0,3.7,0,5.7C200.9,447.1,196.5,447.1,191.9,447.1z M193.5,445.5
		c3.4,0,6.7,0,10.1,0c0-0.9,0-1.6,0-2.4c-3.4,0-6.7,0-10.1,0C193.5,443.9,193.5,444.7,193.5,445.5z"/>
	<path d="M125.4,405.2c3.6,0,7.1,0,10.7,0c0,9.4,0,18.7,0,28.2c-3.5,0-7.1,0-10.7,0C125.4,424,125.4,414.7,125.4,405.2z
		 M134.4,431.8c0-8.4,0-16.7,0-24.9c-2.5,0-5,0-7.4,0c0,8.4,0,16.6,0,24.9C129.5,431.8,131.9,431.8,134.4,431.8z"/>
	<path d="M124,358c0-10.1,0-20.1,0-30.1c3.7,0,7.3,0,11.1,0c0,10,0,20,0,30.1C131.5,358,127.8,358,124,358z M125.7,329.4
		c0,9,0,18,0,26.9c2.6,0,5.2,0,7.7,0c0-9,0-17.9,0-26.9C130.8,329.4,128.4,329.4,125.7,329.4z"/>
	<path d="M135.9,358c0-10.1,0-20.1,0-30.1c3.6,0,7.1,0,10.7,0c0,10,0,20,0,30.1C143.1,358,139.6,358,135.9,358z M137.6,329.4
		c0,9.1,0,18,0,26.9c2.5,0,5,0,7.4,0c0-9,0-17.9,0-26.9C142.5,329.4,140.2,329.4,137.6,329.4z"/>
	<path d="M146.1,319.7c0,1.8,0,3.5,0,5.3c-6.9,0-13.7,0-20.6,0c0-1.7,0-3.5,0-5.3C132.2,319.7,139.1,319.7,146.1,319.7z
		 M144.4,321.3c-5.9,0-11.6,0-17.4,0c0,0.8,0,1.4,0,2.1c5.8,0,11.6,0,17.4,0C144.4,322.7,144.4,322.1,144.4,321.3z"/>
	<path d="M126,479.6c6.4,0,12.6,0,19,0c0,13.7,0,27.2,0,40.9c-6.3,0-12.6,0-19,0C126,507,126,493.4,126,479.6z M143.4,481.3
		c-5.4,0-10.5,0-15.7,0c0,12.6,0,25.2,0,37.7c5.3,0,10.5,0,15.7,0C143.4,506.4,143.4,493.9,143.4,481.3z"/>
	<g>
		<path class="st1" d="M125.4,468.7c-0.3,0.3-0.5,0.7-0.8,0.9c-2,2-4.1,4.1-6.2,6c-0.3,0.3-1,0.3-1.5,0.4c0.1-0.5,0-1.1,0.3-1.5
			c2.1-2.2,4.2-4.2,6.4-6.3c0.3-0.3,0.8-0.4,1.1-0.4C125,467.9,125.2,468.3,125.4,468.7z"/>
	</g>
	<path class="st0" d="M201.2,404.5c0.9,0,1.6,0,2.4,0c0,11.5,0,23,0,34.4c-0.8,0-1.6,0-2.4,0C201.2,427.5,201.2,416.1,201.2,404.5z"
		/>
	<path class="st0" d="M178.1,358.7c-2.9,0-5.8,0-8.7,0c0-8.9,0-17.9,0-26.9c2.9,0,5.7,0,8.7,0C178.1,340.7,178.1,349.6,178.1,358.7z
		"/>
	<path class="st0" d="M191.7,358.7c-2.9,0-5.6,0-8.4,0c0-9,0-17.8,0-26.9c2.8,0,5.5,0,8.4,0C191.7,340.7,191.7,349.6,191.7,358.7z"
		/>
	<path class="st0" d="M167,324.7c0-0.7,0-1.1,0-1.8c9.3,0,18.4,0,27.6,0c0,0.6,0,1.1,0,1.8C185.5,324.7,176.4,324.7,167,324.7z"/>
	<path class="st0" d="M172,370.7c0-2.7,0-5.3,0-7.9c6,0,11.9,0,18,0c0,2.6,0,5.2,0,7.9C184.1,370.7,178.1,370.7,172,370.7z"/>
	<path class="st0" d="M193.5,445.5c0-0.8,0-1.6,0-2.4c3.3,0,6.7,0,10.1,0c0,0.8,0,1.5,0,2.4C200.3,445.5,197,445.5,193.5,445.5z"/>
	<path class="st0" d="M134.4,431.8c-2.5,0-4.9,0-7.4,0c0-8.3,0-16.5,0-24.9c2.4,0,4.9,0,7.4,0C134.4,415.1,134.4,423.4,134.4,431.8z
		"/>
	<path class="st0" d="M125.7,329.4c2.6,0,5.1,0,7.7,0c0,9,0,17.8,0,26.9c-2.5,0-5.1,0-7.7,0C125.7,347.4,125.7,338.5,125.7,329.4z"
		/>
	<path class="st0" d="M137.6,329.4c2.5,0,4.9,0,7.4,0c0,9,0,17.8,0,26.9c-2.4,0-4.9,0-7.4,0C137.6,347.4,137.6,338.5,137.6,329.4z"
		/>
	<path class="st0" d="M144.4,321.3c0,0.8,0,1.4,0,2.1c-5.8,0-11.6,0-17.4,0c0-0.7,0-1.4,0-2.1C132.8,321.3,138.5,321.3,144.4,321.3z
		"/>
	<path class="st0" d="M143.4,481.3c0,12.6,0,25.1,0,37.7c-5.2,0-10.4,0-15.7,0c0-12.5,0-25,0-37.7
		C132.9,481.3,138.1,481.3,143.4,481.3z"/>
</g>
<g>
	<path class="st0" d="M2.8-25c195,0,390,0,585,0c0,104.9,0,210,0,315c-194.9,0-390,0-585,0C2.8,185.1,2.8,80,2.8-25z M110.6,75.9
		c0,31.2,0,61.9,0,92.9c9.4,0,18.6,0,28,0c-2.3,6.1-6.5,10.1-11.4,13.9c-5.2,3.9-10.9,3.9-16.9,4.6c5.6,1.1,11.4,0.2,16.5,3.7
		c4.9,3.3,9.2,6.9,11.7,12.9c-9.5,0-18.7,0-27.9,0c0,4,0,7.7,0,11.4c124.2,0,248.2,0,372.2,0c0-55.7,0-111.2,0-166.6
		c-124.2,0-248.1,0-372.2,0c0,4.1,0,8,0,12.1c9.8,0,19.6,0,29.4,0c-1.8,5-5.2,8.5-9.2,11.2C124.9,75.8,118,76.5,110.6,75.9z"/>
	<path d="M110.6,75.9c7.4,0.7,14.3-0.1,20.2-4.2c4-2.7,7.4-6.2,9.2-11.2c-9.9,0-19.6,0-29.4,0c0-4.2,0-8,0-12.1
		c124.1,0,248,0,372.2,0c0,55.5,0,110.9,0,166.6c-123.9,0-247.9,0-372.2,0c0-3.7,0-7.4,0-11.4c9.2,0,18.4,0,27.9,0
		c-2.5-5.9-6.8-9.4-11.7-12.9c-5.1-3.5-10.9-2.6-16.5-3.7c6-0.7,11.8-0.7,16.9-4.6c4.9-3.7,9.1-7.7,11.4-13.9c-9.4,0-18.6,0-28,0
		C110.6,137.7,110.6,107,110.6,75.9z M117.7,206.5c0,0.3,0,0.5,0,0.7c15,0,30,0,45.2,0c0-1.2,0-2.2,0-3.2c0-17.7,0-35.3,0-53
		c0-0.7-0.2-1.6,0.1-2.2c0.2-0.6,0.9-1.1,1.5-1.2c0.3-0.1,1,0.6,1.2,1.2c0.2,0.6,0.1,1.5,0.1,2.2c0,17.8,0,35.5,0,53.3
		c0,1,0,1.9,0,3c105.1,0,209.8,0,314.4,0c0-27,0-53.8,0-80.9c-33.9,0-67.4,0-101.2,0c-0.3-10.3-4.3-18.2-13.5-23.9
		c0,8.2,0,16,0,23.8c-37.1,0-73.9,0-110.7,0c-0.4-10.7-4.7-18.9-14.6-24.4c0,8.5,0,16.5,0,24.4c-4,0-7.6,0-11.5,0
		c0-8.1,0-16.1,0-24.2c-7,3-14.5,10.4-15.1,24.4c-31.8,0-63.7,0-95.6,0c0,13.2,0,26.3,0,39.5c8,0,15.7,0,23.9,0
		c-1.3,10.7-8.4,16.4-16.7,20.9c12.1,8,17.6,14.3,16.3,19.6C133.6,206.5,125.6,206.5,117.7,206.5z M235.9,123.7
		c0.6-0.1,1.2-0.1,1.2-0.2c0-8.4,0-16.7,0-25.7c1.7,0.4,2.9,0.5,3.9,1c9.4,5.6,15.6,13.5,16.4,24.7c34.1,0,67.7,0,101.3,0
		c0-22.4,0-44.7,0-66.8c-41,0-81.8,0-122.7,0C235.9,79.1,235.9,101.3,235.9,123.7z M361.9,56.6c0,22.5,0,44.7,0,66.8
		c0.3,0,0.5,0,0.7,0c0-8,0-16.1,0-24c3.8-1,5.8,1.6,8,3.3c6.6,5.3,10.1,12.3,10.9,20.7c33,0,65.8,0,98.5,0c0-22.4,0-44.7,0-66.8
		C440.5,56.6,401.1,56.6,361.9,56.6z M233,56.8c-38.6,0-76.9,0-115.3,0c0,0.2,0,0.5,0,0.6c8.7,0,17.5,0,26.3,0
		c-2.9,10.9-11.7,19.6-26.2,21.4c0,14.8,0,29.7,0,44.6c31,0,61.9,0,92.9,0c1.1-5.7,2.4-11.3,6.3-15.9c4.9-5.7,10.7-9.8,14.4-9.2
		c0,8.3,0,16.6,0,25.1c0.4,0.1,0.7,0.1,1.1,0.2c0.2-0.9,0.5-1.8,0.5-2.8c0-14.8,0-29.6,0-44.4C233,70,233,63.5,233,56.8z M115,53.7
		c121.9,0,243.5,0,365.3,0c-0.1-1-0.2-1.8-0.3-2.5c-122.4,0-244.6,0-367.1,0c0.6,2.2-0.7,4.6,1.6,7.2
		C114.8,56.5,114.8,55.3,115,53.7z M113.4,212.4c1.2,0,2.2,0,3.2,0c120.1,0,240.2,0,360.3,0c0.6,0,1.4,0.2,1.9-0.1
		c0.6-0.3,1.1-1,1.6-1.6c-0.2-0.3-0.4-0.5-0.6-0.7c-121.6,0-243.2,0-364.6,0c-0.9-1.3,0.6-3.2-1.8-3.8
		C113.4,208.3,113.4,210.2,113.4,212.4z M114.7,166.1c0-29.4,0-58.3,0-87.3c-0.4-0.1-0.6-0.2-1-0.2c-0.2,0.9-0.5,1.8-0.5,2.8
		c0,27.3,0,54.5,0,81.8c0,0.6-0.1,1.3,0.1,1.9C113.4,165.5,114,165.6,114.7,166.1z"/>
	<path class="st0" d="M117.7,206.5c7.9,0,15.8,0,23.6,0c1.2-5.3-4.1-11.6-16.3-19.6c8.3-4.6,15.4-10.2,16.7-20.9c-8.2,0-16,0-23.9,0
		c0-13.2,0-26.2,0-39.5c31.9,0,63.8,0,95.6,0c0.6-14,8.1-21.4,15.1-24.4c0,8,0,16.1,0,24.2c4,0,7.5,0,11.5,0c0-7.9,0-15.9,0-24.4
		c9.9,5.5,14.3,13.7,14.6,24.4c36.9,0,73.7,0,110.7,0c0-7.8,0-15.5,0-23.8c9.2,5.6,13.2,13.6,13.5,23.9c33.8,0,67.3,0,101.2,0
		c0,27,0,53.9,0,80.9c-104.7,0-209.4,0-314.4,0c0-1,0-2,0-3c0-17.8,0-35.5,0-53.3c0-0.7,0.1-1.6-0.1-2.2c-0.2-0.5-0.8-1.3-1.2-1.2
		c-0.6,0.1-1.2,0.6-1.5,1.2c-0.3,0.6-0.1,1.5-0.1,2.2c0,17.7,0,35.3,0,53c0,1,0,2,0,3.2c-15.2,0-30.2,0-45.2,0
		C117.7,207,117.7,206.7,117.7,206.5z M336.1,197.1c-21.3,0-42.5,0-63.7,0c0,3.3,0,6.6,0,9.7c21.3,0,42.4,0,63.7,0
		C336.1,203.6,336.1,200.4,336.1,197.1z M408.1,143.7c0,6.8,0,13.5,0,20.2c17.1,0,34,0,51,0c0-6.8,0-13.6,0-20.2
		C442,143.7,425.1,143.7,408.1,143.7z M408,186.7c17.2,0,34.1,0,51,0c0-6.7,0-13.2,0-19.6c-17.1,0-33.9,0-51,0
		C408,173.7,408,180.1,408,186.7z M465.4,191.7c3,0,5.8,0,8.5,0c0-17.4,0-34.7,0-51.8c-2.9,0-5.7,0-8.5,0
		C465.4,157.2,465.4,174.3,465.4,191.7z M406.7,184c0-12.1,0-23.9,0-35.7c-6.4,0-12.8,0-19,0c0,12,0,23.8,0,35.7
		C394.1,184,400.2,184,406.7,184z M261.3,184.2c0,7.7,0,15.1,0,22.4c3.3,0,6.5,0,9.6,0c0-7.6,0-14.9,0-22.4
		C267.6,184.2,264.6,184.2,261.3,184.2z"/>
	<path class="st0" d="M235.9,123.7c0-22.4,0-44.7,0-67c40.9,0,81.7,0,122.7,0c0,22.2,0,44.4,0,66.8c-33.6,0-67.2,0-101.3,0
		c-0.7-11.2-7-19-16.4-24.7c-0.9-0.6-2.1-0.6-3.9-1c0,8.9,0,17.3,0,25.7C237,123.6,236.6,123.6,235.9,123.7z M332.2,72.8
		c-16.1,0-31.9,0-47.7,0c0,6.1,0,12.1,0,17.9c16,0,31.7,0,47.7,0C332.2,84.7,332.2,78.9,332.2,72.8z"/>
	<path class="st0" d="M361.9,56.6c39.2,0,78.6,0,118,0c0,22.2,0,44.4,0,66.8c-32.7,0-65.5,0-98.5,0c-0.7-8.3-4.2-15.4-10.9-20.7
		c-2.1-1.7-4.2-4.3-8-3.3c0,8,0,16,0,24c-0.3,0-0.5,0-0.7,0C361.9,101.4,361.9,79.2,361.9,56.6z M412,70.5c0,6.4,0,12.5,0,18.6
		c17.1,0,34,0,51,0c0-6.3,0-12.5,0-18.6C445.9,70.5,429.1,70.5,412,70.5z M412,90.5c0,6.2,0,12.1,0,17.9c17.1,0,34.1,0,51,0
		c0-6.1,0-12,0-17.9C445.9,90.5,429.1,90.5,412,90.5z M476.8,107.5c0-11.7,0-23.2,0-34.6c-3.1,0-6.2,0-9,0c0,11.6,0,23,0,34.6
		C470.8,107.5,473.6,107.5,476.8,107.5z"/>
	<path class="st0" d="M233,56.8c0,6.7,0,13.2,0,19.8c0,14.8,0,29.6,0,44.4c0,0.9-0.3,1.8-0.5,2.8c-0.4-0.1-0.7-0.1-1.1-0.2
		c0-8.3,0-16.7,0-25.1c-3.7-0.6-9.5,3.3-14.4,9.2c-4,4.6-5.2,10.2-6.3,15.9c-31,0-61.9,0-92.9,0c0-15,0-29.8,0-44.6
		c14.5-1.8,23.4-10.5,26.2-21.4c-8.8,0-17.6,0-26.3,0c0-0.2,0-0.5,0-0.6C156.1,56.8,194.3,56.8,233,56.8z M206.4,73.9
		c-23.3,0-46.3,0-69.2,0c0,10.7,0,21.4,0,31.8c23.2,0,46.1,0,69.2,0C206.4,95.1,206.4,84.7,206.4,73.9z M224.9,72.8
		c0.6-0.4,1.3-0.6,1.3-1c0-0.6-0.2-1.5-0.6-1.8c-3.5-3.6-7.1-7.2-10.7-10.7c-0.6-0.5-1.7-0.4-2.5-0.6c0.3,0.8,0.2,1.9,0.7,2.5
		c3.3,3.5,6.8,6.9,10.2,10.4C223.8,72,224.3,72.4,224.9,72.8z"/>
	<g>
		<path class="st1" d="M115,53.7c-0.1,1.6-0.2,2.8-0.4,4.7c-2.3-2.5-0.9-4.9-1.6-7.2c122.4,0,244.6,0,367.1,0
			c0.1,0.6,0.2,1.5,0.3,2.5C358.4,53.7,236.8,53.7,115,53.7z"/>
	</g>
	<path class="st0" d="M113.4,212.4c0-2.2,0-4.2,0-6.2c2.5,0.6,0.9,2.5,1.8,3.8c121.3,0,243,0,364.6,0c0.2,0.3,0.4,0.5,0.6,0.7
		c-0.6,0.6-0.9,1.2-1.6,1.6c-0.6,0.3-1.3,0.1-1.9,0.1c-120.1,0-240.2,0-360.3,0C115.6,212.4,114.6,212.4,113.4,212.4z"/>
	<path class="st0" d="M114.7,166.1c-0.6-0.5-1.3-0.6-1.4-1c-0.2-0.6-0.1-1.3-0.1-1.9c0-27.3,0-54.5,0-81.8c0-0.9,0.3-1.8,0.5-2.8
		c0.4,0.1,0.6,0.2,1,0.2C114.7,107.8,114.7,136.8,114.7,166.1z"/>
	<path d="M336.1,197.1c0,3.3,0,6.5,0,9.7c-21.3,0-42.3,0-63.7,0c0-3.1,0-6.3,0-9.7C293.5,197.1,314.7,197.1,336.1,197.1z
		 M333.3,199.9c-19.6,0-38.9,0-58.2,0c0,1.5,0,2.7,0,4.1c19.5,0,38.8,0,58.2,0C333.3,202.5,333.3,201.3,333.3,199.9z"/>
	<path d="M408.1,143.7c17,0,33.9,0,51,0c0,6.7,0,13.3,0,20.2c-16.9,0-33.9,0-51,0C408.1,157.2,408.1,150.6,408.1,143.7z
		 M410.8,161.2c15.4,0,30.4,0,45.5,0c0-5,0-9.8,0-14.6c-15.3,0-30.4,0-45.5,0C410.8,151.6,410.8,156.3,410.8,161.2z"/>
	<path d="M408,186.7c0-6.7,0-13,0-19.6c17,0,33.9,0,51,0c0,6.5,0,12.9,0,19.6C442.2,186.7,425.2,186.7,408,186.7z M410.8,184
		c15.4,0,30.5,0,45.4,0c0-4.8,0-9.5,0-14.1c-15.3,0-30.3,0-45.4,0C410.8,174.6,410.8,179.1,410.8,184z"/>
	<path d="M465.4,191.7c0-17.3,0-34.5,0-51.8c2.9,0,5.5,0,8.5,0c0,17.1,0,34.3,0,51.8C471.3,191.7,468.5,191.7,465.4,191.7z
		 M468.3,142.6c0,15.6,0,31,0,46.3c1.1,0,1.9,0,3,0c0-15.5,0-30.9,0-46.3C470.2,142.6,469.4,142.6,468.3,142.6z"/>
	<path d="M406.7,184c-6.4,0-12.6,0-19,0c0-11.9,0-23.7,0-35.7c6.3,0,12.5,0,19,0C406.7,160.1,406.7,171.9,406.7,184z M390.5,150.9
		c0,10.3,0,20.2,0,30.1c4.6,0,9.1,0,13.4,0c0-10.2,0-20.1,0-30.1C399.4,150.9,395.1,150.9,390.5,150.9z"/>
	<path d="M261.3,184.2c3.3,0,6.3,0,9.6,0c0,7.5,0,14.8,0,22.4c-3.1,0-6.3,0-9.6,0C261.3,199.3,261.3,191.9,261.3,184.2z M264.1,187
		c0,5.7,0,11.3,0,16.9c1.5,0,2.8,0,4,0c0-5.7,0-11.3,0-16.9C266.6,187,265.4,187,264.1,187z"/>
	<path d="M332.2,72.8c0,6.1,0,11.9,0,17.9c-15.9,0-31.6,0-47.7,0c0-5.9,0-11.8,0-17.9C300.3,72.8,316.1,72.8,332.2,72.8z M287.2,88
		c14.3,0,28.2,0,42.1,0c0-4.3,0-8.4,0-12.4c-14.2,0-28.1,0-42.1,0C287.2,79.8,287.2,83.7,287.2,88z"/>
	<path d="M412,70.5c17.1,0,33.9,0,51,0c0,6.2,0,12.3,0,18.6c-16.9,0-33.9,0-51,0C412,83,412,76.8,412,70.5z M460.3,73.4
		c-15.3,0-30.5,0-45.4,0c0,4.4,0,8.8,0,12.9c15.3,0,30.3,0,45.4,0C460.3,82,460.3,77.8,460.3,73.4z"/>
	<path d="M412,90.5c17.1,0,33.9,0,51,0c0,6,0,11.8,0,17.9c-16.9,0-33.9,0-51,0C412,102.6,412,96.7,412,90.5z M460.3,93.3
		c-15.4,0-30.5,0-45.4,0c0,4.3,0,8.4,0,12.4c15.3,0,30.3,0,45.4,0C460.3,101.6,460.3,97.6,460.3,93.3z"/>
	<path d="M476.8,107.5c-3.1,0-6,0-9,0c0-11.6,0-22.9,0-34.6c2.9,0,5.9,0,9,0C476.8,84.3,476.8,95.7,476.8,107.5z M474,104.7
		c0-9.9,0-19.5,0-29.1c-1.3,0-2.3,0-3.5,0c0,9.8,0,19.4,0,29.1C471.7,104.7,472.7,104.7,474,104.7z"/>
	<path d="M206.4,73.9c0,10.7,0,21.2,0,31.8c-23.1,0-46,0-69.2,0c0-10.5,0-21.1,0-31.8C160.1,73.9,183.1,73.9,206.4,73.9z
		 M203.5,103.1c0-9,0-17.7,0-26.3c-21.3,0-42.6,0-63.7,0c0,8.9,0,17.6,0,26.3C161.1,103.1,182.2,103.1,203.5,103.1z"/>
	<g>
		<path class="st1" d="M224.9,72.8c-0.6-0.5-1.1-0.8-1.6-1.3c-3.4-3.4-6.9-6.8-10.2-10.4c-0.6-0.6-0.5-1.7-0.7-2.5
			c0.8,0.2,1.9,0,2.5,0.6c3.7,3.5,7.2,7.1,10.7,10.7c0.5,0.5,0.6,1.3,0.6,1.8C226.2,72.2,225.4,72.4,224.9,72.8z"/>
	</g>
	<path class="st0" d="M333.3,199.9c0,1.5,0,2.7,0,4.1c-19.5,0-38.8,0-58.2,0c0-1.4,0-2.7,0-4.1C294.4,199.9,313.7,199.9,333.3,199.9
		z"/>
	<path class="st0" d="M410.8,161.2c0-4.9,0-9.7,0-14.6c15.1,0,30.3,0,45.5,0c0,4.8,0,9.6,0,14.6
		C441.2,161.2,426.2,161.2,410.8,161.2z"/>
	<path class="st0" d="M410.8,184c0-4.8,0-9.3,0-14.1c15.2,0,30.2,0,45.4,0c0,4.6,0,9.2,0,14.1C441.2,184,426.2,184,410.8,184z"/>
	<path class="st0" d="M468.3,142.6c1.1,0,1.9,0,3,0c0,15.5,0,30.9,0,46.3c-1,0-1.9,0-3,0C468.3,173.6,468.3,158.2,468.3,142.6z"/>
	<path class="st0" d="M390.5,150.9c4.6,0,8.9,0,13.4,0c0,10.1,0,20,0,30.1c-4.4,0-8.8,0-13.4,0C390.5,171.2,390.5,161.2,390.5,150.9
		z"/>
	<path class="st0" d="M264.1,187c1.4,0,2.7,0,4,0c0,5.5,0,11.2,0,16.9c-1.3,0-2.6,0-4,0C264.1,198.3,264.1,192.7,264.1,187z"/>
	<path class="st0" d="M287.2,88c0-4.3,0-8.2,0-12.4c14.1,0,28,0,42.1,0c0,4.1,0,8.1,0,12.4C315.4,88,301.4,88,287.2,88z"/>
	<path class="st0" d="M460.3,73.4c0,4.4,0,8.6,0,12.9c-15.2,0-30.2,0-45.4,0c0-4.3,0-8.5,0-12.9C429.8,73.4,444.9,73.4,460.3,73.4z"
		/>
	<path class="st0" d="M460.3,93.3c0,4.3,0,8.2,0,12.4c-15.2,0-30.2,0-45.4,0c0-4.1,0-8.1,0-12.4C429.8,93.3,444.9,93.3,460.3,93.3z"
		/>
	<path class="st0" d="M474,104.7c-1.3,0-2.3,0-3.5,0c0-9.8,0-19.4,0-29.1c1.2,0,2.3,0,3.5,0C474,85.2,474,94.8,474,104.7z"/>
	<path class="st0" d="M203.5,103.1c-21.3,0-42.4,0-63.7,0c0-8.8,0-17.4,0-26.3c21.1,0,42.3,0,63.7,0
		C203.5,85.4,203.5,94.1,203.5,103.1z"/>
</g>
<g>
	<path d="M303.7,339v4h-10.8v-16.4h10.7v4.1h-6v2.1h5.5v3.9h-5.5v2.3H303.7z"/>
	<path d="M305.8,334.9c0-6.7,2.9-8.4,7.7-8.4c4.9,0,7.7,1.7,7.7,8.4c0,6.7-2.8,8.4-7.7,8.4C308.7,343.3,305.8,341.6,305.8,334.9z
		 M316.3,334.9c0-3.6-0.5-4.6-2.8-4.6c-2.2,0-2.8,1.1-2.8,4.6c0,3.5,0.5,4.5,2.8,4.5C315.8,339.4,316.3,338.4,316.3,334.9z"/>
	<path d="M332.9,343l-3.4-5.5h-0.9v5.5h-4.7v-16.4h6.6c4.2,0,6.3,1.6,6.3,5.5c0,2.6-0.9,4.2-2.9,4.9l4.4,6H332.9z M328.6,334.2h1.1
		c1.9,0,2.5-0.5,2.5-2.1c0-1.5-0.6-1.9-2.5-1.9h-1.1V334.2z"/>
	<path d="M339.9,326.7h4.7V343h-4.7V326.7z"/>
	<path d="M347.3,334.9c0-6.7,2.9-8.4,7.7-8.4c4.9,0,7.7,1.7,7.7,8.4c0,6.7-2.8,8.4-7.7,8.4C350.1,343.3,347.3,341.6,347.3,334.9z
		 M357.8,334.9c0-3.6-0.5-4.6-2.8-4.6c-2.2,0-2.8,1.1-2.8,4.6c0,3.5,0.5,4.5,2.8,4.5C357.2,339.4,357.8,338.4,357.8,334.9z"/>
	<path d="M365.4,326.7h7.1l3.4,10.3h0.1v-10.3h4.6V343H374l-3.9-10.9H370V343h-4.6V326.7z"/>
	<path d="M389.3,334.9c0-6.7,2.9-8.4,7.7-8.4c4.9,0,7.7,1.7,7.7,8.4c0,6.7-2.8,8.4-7.7,8.4C392.2,343.3,389.3,341.6,389.3,334.9z
		 M399.8,334.9c0-3.6-0.5-4.6-2.8-4.6c-2.2,0-2.8,1.1-2.8,4.6c0,3.5,0.5,4.5,2.8,4.5C399.3,339.4,399.8,338.4,399.8,334.9z"/>
	<path d="M420.3,330.3h2.1v3.4h-2.1v9.3h-4.5v-9.3h-3.4v9.3H408v-9.3h-1.8v-3.4h1.8v-0.1c0-4.4,2.1-5.2,5.6-5.2c0.5,0,1,0,1.5,0.1
		v3.1c-0.3,0-0.5-0.1-0.7-0.1c-1.7,0-1.9,0.4-1.9,2.1v0h3.4v-0.1c0-4.4,1.7-5.2,5.1-5.2c0.5,0,0.9,0,1.3,0.1v3.1c-0.3,0-0.4,0-0.7,0
		C420.5,328.1,420.3,328.5,420.3,330.3L420.3,330.3z M423.5,326.7c0-2.1,0.4-2.2,2.4-2.2c2.1,0,2.4,0.2,2.4,2.2
		c0,2.1-0.4,2.3-2.4,2.3C423.9,329,423.5,328.8,423.5,326.7z M423.7,330.3h4.5V343h-4.5V330.3z"/>
	<path d="M430.3,336.7c0-5.2,2.5-6.6,6.6-6.6c1.1,0,2.4,0.1,3.3,0.4v3.6c-0.8-0.3-1.6-0.4-2.5-0.4c-1.8,0-2.9,0.6-2.9,3s1,3,2.9,3
		c0.8,0,1.7-0.1,2.5-0.4v3.6c-0.8,0.3-2.2,0.5-3.4,0.5C432.7,343.3,430.3,341.9,430.3,336.7z"/>
	<path d="M454.3,337.9l-7.8,0.5c0.2,1.1,1.3,1.6,2.9,1.6c1.7,0,3.7-0.5,4.4-0.9v3.3c-0.8,0.5-2.8,1-5.3,1c-4,0-6.5-1.4-6.5-6.6
		s2.5-6.6,6.7-6.6c4.5,0,5.8,1.9,5.8,5.8C454.5,336.9,454.4,337.7,454.3,337.9z M450.5,335c0-1-0.4-1.6-1.8-1.6
		c-1.5,0-2.2,0.4-2.3,1.9L450.5,335z"/>
</g>
<g>
	<rect x="284.8" y="563.1" class="st1" width="27" height="2"/>
</g>
<g>
	<path d="M270.2,29.9c-0.2-0.7-0.5-1.6-1.7-1.6c-0.9,0-1.3,0.6-1.3,1.3c0,1,0.7,1.4,1.5,1.8c0.5,0.3,2,0.8,2,2.3
		c0,1.2-1,2.1-2.5,2.2c-0.5,0-0.9-0.1-1.2-0.2c-0.3-0.1-0.4-0.2-0.5-0.2c-0.1-0.3-0.2-1.2-0.3-1.9h0.2c0.2,0.6,0.7,2,2.1,2
		c0.9,0,1.5-0.5,1.5-1.6c0-1.2-1-1.6-1.6-2c-0.1-0.1-1.9-0.6-1.9-2.1c0-1,0.8-1.9,2.2-1.9c0.4,0,0.7,0,1.4,0.3
		c0,0.4,0.1,0.9,0.2,1.7H270.2z"/>
	<path d="M275.8,34.8c-0.7,0.8-1.5,1-1.8,1c-1.4,0-2.3-1.1-2.3-2.4c0-1.8,1.4-2.9,2.4-2.9c1,0,1.8,0.8,1.8,1.7c0,0.2,0,0.3-0.2,0.3
		c-0.2,0-1.7,0.2-3.4,0.2c0,1.8,1.1,2.5,1.9,2.5c0.4,0,0.8-0.1,1.5-0.7L275.8,34.8z M272.4,32.4c0.3,0,2,0,2.5,0
		c0.3,0,0.3-0.1,0.3-0.2c0-0.7-0.5-1.3-1.4-1.3C273.2,30.9,272.5,31.5,272.4,32.4z"/>
	<path d="M281.1,34.6c-0.5,0.7-1.3,1.2-2.1,1.2c-1.5,0-2.4-1.2-2.4-2.3c0-2.2,2.1-2.9,3-2.9c0.3,0,1.3,0.2,1.3,0.6
		c0,0.2-0.2,0.4-0.4,0.4c0,0-0.1,0-0.2-0.1c-0.4-0.3-0.8-0.4-1.4-0.4c-0.7,0-1.6,0.6-1.6,2c0,1.7,1.2,2.3,2,2.3c0.6,0,1-0.1,1.6-0.8
		L281.1,34.6z"/>
	<path d="M284,35.7c-0.2,0.1-0.3,0.1-0.5,0.1c-0.7,0-1-0.5-1-1.3v-3.4h-0.9l0-0.1l0.3-0.3h0.6v-0.7l0.4-0.8l0.2,0v1.5h1.4
		c0,0,0,0.1,0,0.1c0,0.1,0,0.2-0.1,0.2h-1.4v3.1c0,1,0.3,1.2,0.7,1.2c0.4,0,0.7-0.2,0.8-0.2l0.1,0.2L284,35.7z"/>
	<path d="M285,35.5c0.8-0.1,0.9-0.2,0.9-0.9v-2.5c0-0.8-0.1-0.8-0.8-0.9V31c0.5-0.1,0.9-0.2,1.3-0.5v4.1c0,0.7,0.1,0.9,0.9,0.9v0.2
		H285V35.5z M286.6,28.4c0,0.3-0.2,0.5-0.5,0.5c-0.2,0-0.5-0.2-0.5-0.5c0-0.3,0.2-0.5,0.5-0.5C286.5,27.9,286.6,28.2,286.6,28.4z"/>
	<path d="M293.3,33.1c0,1.8-1.5,2.7-2.6,2.7c-1.6,0-2.7-1.2-2.7-2.5c0-1.9,1.6-2.7,2.6-2.7C292.2,30.6,293.3,31.7,293.3,33.1z
		 M288.8,32.9c0,1.5,0.8,2.6,2.1,2.6c1,0,1.7-0.6,1.7-2.3c0-1.2-0.7-2.4-2-2.4C289.5,30.9,288.8,31.7,288.8,32.9z"/>
	<path d="M294.2,35.5c0.7,0,0.9-0.2,0.9-0.9v-2.4c0-0.8-0.1-0.9-0.8-1v-0.2c0.5-0.1,1-0.2,1.3-0.5v1c0.2-0.1,0.5-0.4,0.9-0.6
		c0.3-0.2,0.6-0.3,1-0.3c1,0,1.6,0.6,1.6,1.6v2.4c0,0.8,0.1,1,0.8,1v0.2h-2.3v-0.2c0.8,0,1-0.2,1-1v-2c0-0.7-0.2-1.5-1.3-1.5
		c-0.6,0-1.2,0.4-1.6,0.7v2.7c0,0.8,0.1,0.9,0.9,1v0.2h-2.4V35.5z"/>
	<path d="M304,35.5c1.1-0.1,1.2-0.2,1.2-1v-4.6c0-0.5,0-0.6-0.6-0.7l-0.5-0.1V29c0.7-0.1,1.3-0.3,1.7-0.6v6.1c0,0.8,0.1,0.9,1.2,1
		v0.2h-3V35.5z"/>
</g>
<g>
	<path d="M142.2,257.9c-0.2-0.7-0.5-1.6-1.7-1.6c-0.9,0-1.3,0.6-1.3,1.3c0,1,0.7,1.4,1.5,1.8c0.5,0.3,2,0.8,2,2.3
		c0,1.2-1,2.1-2.5,2.2c-0.5,0-0.9-0.1-1.2-0.2c-0.3-0.1-0.4-0.2-0.5-0.2c-0.1-0.3-0.2-1.2-0.3-1.9h0.2c0.2,0.6,0.7,2,2.1,2
		c0.9,0,1.5-0.5,1.5-1.6c0-1.2-1-1.6-1.6-2c-0.1-0.1-1.9-0.6-1.9-2.1c0-1,0.8-1.9,2.2-1.9c0.4,0,0.7,0,1.4,0.3
		c0,0.4,0.1,0.9,0.2,1.7H142.2z"/>
	<path d="M147.8,262.8c-0.7,0.8-1.5,1-1.8,1c-1.4,0-2.3-1.1-2.3-2.4c0-1.8,1.4-2.9,2.4-2.9c1,0,1.8,0.8,1.8,1.7c0,0.2,0,0.3-0.2,0.3
		c-0.2,0-1.7,0.2-3.4,0.2c0,1.8,1.1,2.5,1.9,2.5c0.4,0,0.8-0.1,1.5-0.7L147.8,262.8z M144.4,260.4c0.3,0,2,0,2.5,0
		c0.3,0,0.3-0.1,0.3-0.2c0-0.7-0.5-1.3-1.4-1.3C145.2,258.9,144.5,259.5,144.4,260.4z"/>
	<path d="M153.1,262.6c-0.5,0.7-1.3,1.2-2.1,1.2c-1.5,0-2.4-1.2-2.4-2.3c0-2.2,2.1-2.9,3-2.9c0.3,0,1.3,0.2,1.3,0.6
		c0,0.2-0.2,0.4-0.4,0.4c0,0-0.1,0-0.2-0.1c-0.4-0.3-0.8-0.4-1.4-0.4c-0.7,0-1.6,0.6-1.6,2c0,1.7,1.2,2.3,2,2.3c0.6,0,1-0.1,1.6-0.8
		L153.1,262.6z"/>
	<path d="M156,263.7c-0.2,0.1-0.3,0.1-0.5,0.1c-0.7,0-1-0.5-1-1.3v-3.4h-0.9l0-0.1l0.3-0.3h0.6v-0.7l0.4-0.8l0.2,0v1.5h1.4
		c0,0,0,0.1,0,0.1c0,0.1,0,0.2-0.1,0.2h-1.4v3.1c0,1,0.3,1.2,0.7,1.2c0.4,0,0.7-0.2,0.8-0.2l0.1,0.2L156,263.7z"/>
	<path d="M157,263.5c0.8-0.1,0.9-0.2,0.9-0.9v-2.5c0-0.8-0.1-0.8-0.8-0.9V259c0.5-0.1,0.9-0.2,1.3-0.5v4.1c0,0.7,0.1,0.9,0.9,0.9
		v0.2H157V263.5z M158.6,256.4c0,0.3-0.2,0.5-0.5,0.5c-0.2,0-0.5-0.2-0.5-0.5c0-0.3,0.2-0.5,0.5-0.5
		C158.5,255.9,158.6,256.2,158.6,256.4z"/>
	<path d="M165.3,261.1c0,1.8-1.5,2.7-2.6,2.7c-1.6,0-2.7-1.2-2.7-2.5c0-1.9,1.6-2.7,2.6-2.7C164.2,258.6,165.3,259.7,165.3,261.1z
		 M160.8,260.9c0,1.5,0.8,2.6,2.1,2.6c1,0,1.7-0.6,1.7-2.3c0-1.2-0.7-2.4-2-2.4C161.5,258.9,160.8,259.7,160.8,260.9z"/>
	<path d="M166.2,263.5c0.7,0,0.9-0.2,0.9-0.9v-2.4c0-0.8-0.1-0.9-0.8-1v-0.2c0.5-0.1,1-0.2,1.3-0.5v1c0.2-0.1,0.5-0.4,0.9-0.6
		c0.3-0.2,0.6-0.3,1-0.3c1,0,1.6,0.6,1.6,1.6v2.4c0,0.8,0.1,1,0.8,1v0.2h-2.3v-0.2c0.8,0,1-0.2,1-1v-2c0-0.7-0.2-1.5-1.3-1.5
		c-0.6,0-1.2,0.4-1.6,0.7v2.7c0,0.8,0.1,0.9,0.9,1v0.2h-2.4V263.5z"/>
	<path d="M179.6,262.4c-0.1,0.4-0.2,0.7-0.4,1.3H175v-0.2c0.7-0.7,1.3-1.3,1.9-2c0.6-0.7,1.6-1.7,1.6-2.9c0-1.1-0.6-1.7-1.5-1.7
		c-0.9,0-1.4,0.7-1.7,1.1l-0.2-0.1l0.6-0.9c0.3-0.3,0.9-0.6,1.5-0.6c0.9,0,1.9,0.7,1.9,1.8c0,1.1-0.6,1.8-1.5,2.8l-1.9,2h2.5
		c0.6,0,0.8-0.1,1.1-0.8L179.6,262.4z"/>
</g>
<g>
	<rect x="147.2" y="338.7" class="st1" width="0.3" height="23.3"/>
</g>
<g>
</g>
<g>
</g>
<g>
</g>
<g>
</g>
<g>
</g>
<g>
</g>
<g>
</g>
<g>
</g>
<g>
</g>
<g>
</g>
<g>
</g>
<g>
</g>
<g>
</g>
<g>
</g>
<g>
</g>
</svg>
