<?xml version="1.0" encoding="utf-8"?>
<!-- Generator: Adobe Illustrator 22.0.0, SVG Export Plug-In . SVG Version: 6.00 Build 0)  -->
<svg version="1.1" id="图层_1" xmlns="http://www.w3.org/2000/svg" xmlns:xlink="http://www.w3.org/1999/xlink" x="0px" y="0px"
	 viewBox="0 0 600 600" style="enable-background:new 0 0 600 600;" xml:space="preserve">
<style type="text/css">
	.st0{fill:#FFFFFF;}
	.st1{fill:none;}
</style>
<g>
	<path class="st0" d="M5.8,117c195,0,390,0,585,0c0,104.9,0,210,0,315c-194.9,0-390,0-585,0C5.8,327.1,5.8,222,5.8,117z
		 M113.6,217.9c0,31.2,0,61.9,0,92.9c9.4,0,18.6,0,28,0c-2.3,6.1-6.5,10.1-11.4,13.9c-5.2,3.9-10.9,3.9-16.9,4.6
		c5.6,1.1,11.4,0.2,16.5,3.7c4.9,3.3,9.2,6.9,11.7,12.9c-9.5,0-18.7,0-27.9,0c0,4,0,7.7,0,11.4c124.2,0,248.2,0,372.2,0
		c0-55.7,0-111.2,0-166.6c-124.2,0-248.1,0-372.2,0c0,4.1,0,8,0,12.1c9.8,0,19.6,0,29.4,0c-1.8,5-5.2,8.5-9.2,11.2
		C127.9,217.8,121,218.5,113.6,217.9z"/>
	<path d="M113.6,217.9c7.4,0.7,14.3-0.1,20.2-4.2c4-2.7,7.4-6.2,9.2-11.2c-9.9,0-19.6,0-29.4,0c0-4.2,0-8,0-12.1
		c124.1,0,248,0,372.2,0c0,55.5,0,110.9,0,166.6c-123.9,0-247.9,0-372.2,0c0-3.7,0-7.4,0-11.4c9.2,0,18.4,0,27.9,0
		c-2.5-5.9-6.8-9.4-11.7-12.9c-5.1-3.5-10.9-2.6-16.5-3.7c6-0.7,11.8-0.7,16.9-4.6c4.9-3.7,9.1-7.7,11.4-13.9c-9.4,0-18.6,0-28,0
		C113.6,279.7,113.6,249,113.6,217.9z M120.7,348.5c0,0.3,0,0.5,0,0.7c15,0,30,0,45.2,0c0-1.2,0-2.2,0-3.2c0-17.7,0-35.3,0-53
		c0-0.7-0.2-1.6,0.1-2.2c0.2-0.6,0.9-1.1,1.5-1.2c0.3-0.1,1,0.6,1.2,1.2c0.2,0.6,0.1,1.5,0.1,2.2c0,17.8,0,35.5,0,53.3
		c0,1,0,1.9,0,3c105.1,0,209.8,0,314.4,0c0-27,0-53.8,0-80.9c-33.9,0-67.4,0-101.2,0c-0.3-10.3-4.3-18.2-13.5-23.9
		c0,8.2,0,16,0,23.8c-37.1,0-73.9,0-110.7,0c-0.4-10.7-4.7-18.9-14.6-24.4c0,8.5,0,16.5,0,24.4c-4,0-7.6,0-11.5,0
		c0-8.1,0-16.1,0-24.2c-7,3-14.5,10.4-15.1,24.4c-31.8,0-63.7,0-95.6,0c0,13.2,0,26.3,0,39.5c8,0,15.7,0,23.9,0
		c-1.3,10.7-8.4,16.4-16.7,20.9c12.1,8,17.6,14.3,16.3,19.6C136.6,348.5,128.6,348.5,120.7,348.5z M238.9,265.7
		c0.6-0.1,1.2-0.1,1.2-0.2c0-8.4,0-16.7,0-25.7c1.7,0.4,2.9,0.5,3.9,1c9.4,5.6,15.6,13.5,16.4,24.7c34.1,0,67.7,0,101.3,0
		c0-22.4,0-44.7,0-66.8c-41,0-81.8,0-122.7,0C238.9,221.1,238.9,243.3,238.9,265.7z M364.9,198.6c0,22.5,0,44.7,0,66.8
		c0.3,0,0.5,0,0.7,0c0-8,0-16.1,0-24c3.8-1,5.8,1.6,8,3.3c6.6,5.3,10.1,12.3,10.9,20.7c33,0,65.8,0,98.5,0c0-22.4,0-44.7,0-66.8
		C443.5,198.6,404.1,198.6,364.9,198.6z M236,198.8c-38.6,0-76.9,0-115.3,0c0,0.2,0,0.5,0,0.6c8.7,0,17.5,0,26.3,0
		c-2.9,10.9-11.7,19.6-26.2,21.4c0,14.8,0,29.7,0,44.6c31,0,61.9,0,92.9,0c1.1-5.7,2.4-11.3,6.3-15.9c4.9-5.7,10.7-9.8,14.4-9.2
		c0,8.3,0,16.6,0,25.1c0.4,0.1,0.7,0.1,1.1,0.2c0.2-0.9,0.5-1.8,0.5-2.8c0-14.8,0-29.6,0-44.4C236,212,236,205.5,236,198.8z
		 M118,195.7c121.9,0,243.5,0,365.3,0c-0.1-1-0.2-1.8-0.3-2.5c-122.4,0-244.6,0-367.1,0c0.6,2.2-0.7,4.6,1.6,7.2
		C117.8,198.5,117.8,197.3,118,195.7z M116.4,354.4c1.2,0,2.2,0,3.2,0c120.1,0,240.2,0,360.3,0c0.6,0,1.4,0.2,1.9-0.1
		c0.6-0.3,1.1-1,1.6-1.6c-0.2-0.3-0.4-0.5-0.6-0.7c-121.6,0-243.2,0-364.6,0c-0.9-1.3,0.6-3.2-1.8-3.8
		C116.4,350.3,116.4,352.2,116.4,354.4z M117.7,308.1c0-29.4,0-58.3,0-87.3c-0.4-0.1-0.6-0.2-1-0.2c-0.2,0.9-0.5,1.8-0.5,2.8
		c0,27.3,0,54.5,0,81.8c0,0.6-0.1,1.3,0.1,1.9C116.4,307.5,117,307.6,117.7,308.1z"/>
	<path class="st0" d="M120.7,348.5c7.9,0,15.8,0,23.6,0c1.2-5.3-4.1-11.6-16.3-19.6c8.3-4.6,15.4-10.2,16.7-20.9c-8.2,0-16,0-23.9,0
		c0-13.2,0-26.2,0-39.5c31.9,0,63.8,0,95.6,0c0.6-14,8.1-21.4,15.1-24.4c0,8,0,16.1,0,24.2c4,0,7.5,0,11.5,0c0-7.9,0-15.9,0-24.4
		c9.9,5.5,14.3,13.7,14.6,24.4c36.9,0,73.7,0,110.7,0c0-7.8,0-15.5,0-23.8c9.2,5.6,13.2,13.6,13.5,23.9c33.8,0,67.3,0,101.2,0
		c0,27,0,53.9,0,80.9c-104.7,0-209.4,0-314.4,0c0-1,0-2,0-3c0-17.8,0-35.5,0-53.3c0-0.7,0.1-1.6-0.1-2.2c-0.2-0.5-0.8-1.3-1.2-1.2
		c-0.6,0.1-1.2,0.6-1.5,1.2c-0.3,0.6-0.1,1.5-0.1,2.2c0,17.7,0,35.3,0,53c0,1,0,2,0,3.2c-15.2,0-30.2,0-45.2,0
		C120.7,349,120.7,348.7,120.7,348.5z M339.1,339.1c-21.3,0-42.5,0-63.7,0c0,3.3,0,6.6,0,9.7c21.3,0,42.4,0,63.7,0
		C339.1,345.6,339.1,342.4,339.1,339.1z M411.1,285.7c0,6.8,0,13.5,0,20.2c17.1,0,34,0,51,0c0-6.8,0-13.6,0-20.2
		C445,285.7,428.1,285.7,411.1,285.7z M411,328.7c17.2,0,34.1,0,51,0c0-6.7,0-13.2,0-19.6c-17.1,0-33.9,0-51,0
		C411,315.7,411,322.1,411,328.7z M468.4,333.7c3,0,5.8,0,8.5,0c0-17.4,0-34.7,0-51.8c-2.9,0-5.7,0-8.5,0
		C468.4,299.2,468.4,316.3,468.4,333.7z M409.7,326c0-12.1,0-23.9,0-35.7c-6.4,0-12.8,0-19,0c0,12,0,23.8,0,35.7
		C397.1,326,403.2,326,409.7,326z M264.3,326.2c0,7.7,0,15.1,0,22.4c3.3,0,6.5,0,9.6,0c0-7.6,0-14.9,0-22.4
		C270.6,326.2,267.6,326.2,264.3,326.2z"/>
	<path class="st0" d="M238.9,265.7c0-22.4,0-44.7,0-67c40.9,0,81.7,0,122.7,0c0,22.2,0,44.4,0,66.8c-33.6,0-67.2,0-101.3,0
		c-0.7-11.2-7-19-16.4-24.7c-0.9-0.6-2.1-0.6-3.9-1c0,8.9,0,17.3,0,25.7C240,265.6,239.6,265.6,238.9,265.7z M335.2,214.8
		c-16.1,0-31.9,0-47.7,0c0,6.1,0,12.1,0,17.9c16,0,31.7,0,47.7,0C335.2,226.7,335.2,220.9,335.2,214.8z"/>
	<path class="st0" d="M364.9,198.6c39.2,0,78.6,0,118,0c0,22.2,0,44.4,0,66.8c-32.7,0-65.5,0-98.5,0c-0.7-8.3-4.2-15.4-10.9-20.7
		c-2.1-1.7-4.2-4.3-8-3.3c0,8,0,16,0,24c-0.3,0-0.5,0-0.7,0C364.9,243.4,364.9,221.2,364.9,198.6z M415,212.5c0,6.4,0,12.5,0,18.6
		c17.1,0,34,0,51,0c0-6.3,0-12.5,0-18.6C448.9,212.5,432.1,212.5,415,212.5z M415,232.5c0,6.2,0,12.1,0,17.9c17.1,0,34.1,0,51,0
		c0-6.1,0-12,0-17.9C448.9,232.5,432.1,232.5,415,232.5z M479.8,249.5c0-11.7,0-23.2,0-34.6c-3.1,0-6.2,0-9,0c0,11.6,0,23,0,34.6
		C473.8,249.5,476.6,249.5,479.8,249.5z"/>
	<path class="st0" d="M236,198.8c0,6.7,0,13.2,0,19.8c0,14.8,0,29.6,0,44.4c0,0.9-0.3,1.8-0.5,2.8c-0.4-0.1-0.7-0.1-1.1-0.2
		c0-8.3,0-16.7,0-25.1c-3.7-0.6-9.5,3.3-14.4,9.2c-4,4.6-5.2,10.2-6.3,15.9c-31,0-61.9,0-92.9,0c0-15,0-29.8,0-44.6
		c14.5-1.8,23.4-10.5,26.2-21.4c-8.8,0-17.6,0-26.3,0c0-0.2,0-0.5,0-0.6C159.1,198.8,197.3,198.8,236,198.8z M209.4,215.9
		c-23.3,0-46.3,0-69.2,0c0,10.7,0,21.4,0,31.8c23.2,0,46.1,0,69.2,0C209.4,237.1,209.4,226.7,209.4,215.9z M227.9,214.8
		c0.6-0.4,1.3-0.6,1.3-1c0-0.6-0.2-1.5-0.6-1.8c-3.5-3.6-7.1-7.2-10.7-10.7c-0.6-0.5-1.7-0.4-2.5-0.6c0.3,0.8,0.2,1.9,0.7,2.5
		c3.3,3.5,6.8,6.9,10.2,10.4C226.8,214,227.3,214.4,227.9,214.8z"/>
	<path class="st0" d="M118,195.7c-0.1,1.6-0.2,2.8-0.4,4.7c-2.3-2.5-0.9-4.9-1.6-7.2c122.4,0,244.6,0,367.1,0
		c0.1,0.6,0.2,1.5,0.3,2.5C361.4,195.7,239.8,195.7,118,195.7z"/>
	<path class="st0" d="M116.4,354.4c0-2.2,0-4.2,0-6.2c2.5,0.6,0.9,2.5,1.8,3.8c121.3,0,243,0,364.6,0c0.2,0.3,0.4,0.5,0.6,0.7
		c-0.6,0.6-0.9,1.2-1.6,1.6c-0.6,0.3-1.3,0.1-1.9,0.1c-120.1,0-240.2,0-360.3,0C118.6,354.4,117.6,354.4,116.4,354.4z"/>
	<path class="st0" d="M117.7,308.1c-0.6-0.5-1.3-0.6-1.4-1c-0.2-0.6-0.1-1.3-0.1-1.9c0-27.3,0-54.5,0-81.8c0-0.9,0.3-1.8,0.5-2.8
		c0.4,0.1,0.6,0.2,1,0.2C117.7,249.8,117.7,278.8,117.7,308.1z"/>
	<path d="M339.1,339.1c0,3.3,0,6.5,0,9.7c-21.3,0-42.3,0-63.7,0c0-3.1,0-6.3,0-9.7C296.5,339.1,317.7,339.1,339.1,339.1z
		 M336.3,341.9c-19.6,0-38.9,0-58.2,0c0,1.5,0,2.7,0,4.1c19.5,0,38.8,0,58.2,0C336.3,344.5,336.3,343.3,336.3,341.9z"/>
	<path d="M411.1,285.7c17,0,33.9,0,51,0c0,6.7,0,13.3,0,20.2c-16.9,0-33.9,0-51,0C411.1,299.2,411.1,292.6,411.1,285.7z
		 M413.8,303.2c15.4,0,30.4,0,45.5,0c0-5,0-9.8,0-14.6c-15.3,0-30.4,0-45.5,0C413.8,293.6,413.8,298.3,413.8,303.2z"/>
	<path d="M411,328.7c0-6.7,0-13,0-19.6c17,0,33.9,0,51,0c0,6.5,0,12.9,0,19.6C445.2,328.7,428.2,328.7,411,328.7z M413.8,326
		c15.4,0,30.5,0,45.4,0c0-4.8,0-9.5,0-14.1c-15.3,0-30.3,0-45.4,0C413.8,316.6,413.8,321.1,413.8,326z"/>
	<path d="M468.4,333.7c0-17.3,0-34.5,0-51.8c2.9,0,5.5,0,8.5,0c0,17.1,0,34.3,0,51.8C474.3,333.7,471.5,333.7,468.4,333.7z
		 M471.3,284.6c0,15.6,0,31,0,46.3c1.1,0,1.9,0,3,0c0-15.5,0-30.9,0-46.3C473.2,284.6,472.4,284.6,471.3,284.6z"/>
	<path d="M409.7,326c-6.4,0-12.6,0-19,0c0-11.9,0-23.7,0-35.7c6.3,0,12.5,0,19,0C409.7,302.1,409.7,313.9,409.7,326z M393.5,292.9
		c0,10.3,0,20.2,0,30.1c4.6,0,9.1,0,13.4,0c0-10.2,0-20.1,0-30.1C402.4,292.9,398.1,292.9,393.5,292.9z"/>
	<path d="M264.3,326.2c3.3,0,6.3,0,9.6,0c0,7.5,0,14.8,0,22.4c-3.1,0-6.3,0-9.6,0C264.3,341.3,264.3,333.9,264.3,326.2z M267.1,329
		c0,5.7,0,11.3,0,16.9c1.5,0,2.8,0,4,0c0-5.7,0-11.3,0-16.9C269.6,329,268.4,329,267.1,329z"/>
	<path d="M335.2,214.8c0,6.1,0,11.9,0,17.9c-15.9,0-31.6,0-47.7,0c0-5.9,0-11.8,0-17.9C303.3,214.8,319.1,214.8,335.2,214.8z
		 M290.2,230c14.3,0,28.2,0,42.1,0c0-4.3,0-8.4,0-12.4c-14.2,0-28.1,0-42.1,0C290.2,221.8,290.2,225.7,290.2,230z"/>
	<path d="M415,212.5c17.1,0,33.9,0,51,0c0,6.2,0,12.3,0,18.6c-16.9,0-33.9,0-51,0C415,225,415,218.8,415,212.5z M463.3,215.4
		c-15.3,0-30.5,0-45.4,0c0,4.4,0,8.8,0,12.9c15.3,0,30.3,0,45.4,0C463.3,224,463.3,219.8,463.3,215.4z"/>
	<path d="M415,232.5c17.1,0,33.9,0,51,0c0,6,0,11.8,0,17.9c-16.9,0-33.9,0-51,0C415,244.6,415,238.7,415,232.5z M463.3,235.3
		c-15.4,0-30.5,0-45.4,0c0,4.3,0,8.4,0,12.4c15.3,0,30.3,0,45.4,0C463.3,243.6,463.3,239.6,463.3,235.3z"/>
	<path d="M479.8,249.5c-3.1,0-6,0-9,0c0-11.6,0-22.9,0-34.6c2.9,0,5.9,0,9,0C479.8,226.3,479.8,237.7,479.8,249.5z M477,246.7
		c0-9.9,0-19.5,0-29.1c-1.3,0-2.3,0-3.5,0c0,9.8,0,19.4,0,29.1C474.7,246.7,475.7,246.7,477,246.7z"/>
	<path d="M209.4,215.9c0,10.7,0,21.2,0,31.8c-23.1,0-46,0-69.2,0c0-10.5,0-21.1,0-31.8C163.1,215.9,186.1,215.9,209.4,215.9z
		 M206.5,245.1c0-9,0-17.7,0-26.3c-21.3,0-42.6,0-63.7,0c0,8.9,0,17.6,0,26.3C164.1,245.1,185.2,245.1,206.5,245.1z"/>
	<path d="M227.9,214.8c-0.6-0.5-1.1-0.8-1.6-1.3c-3.4-3.4-6.9-6.8-10.2-10.4c-0.6-0.6-0.5-1.7-0.7-2.5c0.8,0.2,1.9,0,2.5,0.6
		c3.7,3.5,7.2,7.1,10.7,10.7c0.5,0.5,0.6,1.3,0.6,1.8C229.2,214.2,228.4,214.4,227.9,214.8z"/>
	<path class="st0" d="M336.3,341.9c0,1.5,0,2.7,0,4.1c-19.5,0-38.8,0-58.2,0c0-1.4,0-2.7,0-4.1C297.4,341.9,316.7,341.9,336.3,341.9
		z"/>
	<path class="st0" d="M413.8,303.2c0-4.9,0-9.7,0-14.6c15.1,0,30.3,0,45.5,0c0,4.8,0,9.6,0,14.6
		C444.2,303.2,429.2,303.2,413.8,303.2z"/>
	<path class="st0" d="M413.8,326c0-4.8,0-9.3,0-14.1c15.2,0,30.2,0,45.4,0c0,4.6,0,9.2,0,14.1C444.2,326,429.2,326,413.8,326z"/>
	<path class="st0" d="M471.3,284.6c1.1,0,1.9,0,3,0c0,15.5,0,30.9,0,46.3c-1,0-1.9,0-3,0C471.3,315.6,471.3,300.2,471.3,284.6z"/>
	<path class="st0" d="M393.5,292.9c4.6,0,8.9,0,13.4,0c0,10.1,0,20,0,30.1c-4.4,0-8.8,0-13.4,0C393.5,313.2,393.5,303.2,393.5,292.9
		z"/>
	<path class="st0" d="M267.1,329c1.4,0,2.7,0,4,0c0,5.5,0,11.2,0,16.9c-1.3,0-2.6,0-4,0C267.1,340.3,267.1,334.7,267.1,329z"/>
	<path class="st0" d="M290.2,230c0-4.3,0-8.2,0-12.4c14.1,0,28,0,42.1,0c0,4.1,0,8.1,0,12.4C318.4,230,304.4,230,290.2,230z"/>
	<path class="st0" d="M463.3,215.4c0,4.4,0,8.6,0,12.9c-15.2,0-30.2,0-45.4,0c0-4.3,0-8.5,0-12.9
		C432.8,215.4,447.9,215.4,463.3,215.4z"/>
	<path class="st0" d="M463.3,235.3c0,4.3,0,8.2,0,12.4c-15.2,0-30.2,0-45.4,0c0-4.1,0-8.1,0-12.4
		C432.8,235.3,447.9,235.3,463.3,235.3z"/>
	<path class="st0" d="M477,246.7c-1.3,0-2.3,0-3.5,0c0-9.8,0-19.4,0-29.1c1.2,0,2.3,0,3.5,0C477,227.2,477,236.8,477,246.7z"/>
	<path class="st0" d="M206.5,245.1c-21.3,0-42.4,0-63.7,0c0-8.8,0-17.4,0-26.3c21.1,0,42.3,0,63.7,0
		C206.5,227.4,206.5,236.1,206.5,245.1z"/>
</g>
<g>
	<path d="M225.7,516v4h-10.8v-16.4h10.7v4.1h-6v2.1h5.5v3.9h-5.5v2.3H225.7z"/>
	<path d="M227.8,511.9c0-6.7,2.9-8.4,7.7-8.4c4.9,0,7.7,1.7,7.7,8.4c0,6.7-2.8,8.4-7.7,8.4C230.7,520.3,227.8,518.6,227.8,511.9z
		 M238.3,511.9c0-3.6-0.5-4.6-2.8-4.6c-2.2,0-2.8,1.1-2.8,4.6c0,3.5,0.5,4.5,2.8,4.5C237.8,516.4,238.3,515.4,238.3,511.9z"/>
	<path d="M254.9,520l-3.4-5.5h-0.9v5.5h-4.7v-16.4h6.6c4.2,0,6.3,1.6,6.3,5.5c0,2.6-0.9,4.2-2.9,4.9l4.4,6H254.9z M250.6,511.2h1.1
		c1.9,0,2.5-0.5,2.5-2.1c0-1.5-0.6-1.9-2.5-1.9h-1.1V511.2z"/>
	<path d="M261.9,503.7h4.7V520h-4.7V503.7z"/>
	<path d="M269.3,511.9c0-6.7,2.9-8.4,7.7-8.4c4.9,0,7.7,1.7,7.7,8.4c0,6.7-2.8,8.4-7.7,8.4C272.1,520.3,269.3,518.6,269.3,511.9z
		 M279.8,511.9c0-3.6-0.5-4.6-2.8-4.6c-2.2,0-2.8,1.1-2.8,4.6c0,3.5,0.5,4.5,2.8,4.5C279.2,516.4,279.8,515.4,279.8,511.9z"/>
	<path d="M287.4,503.7h7.1l3.4,10.3h0.1v-10.3h4.6V520H296l-3.9-10.9H292V520h-4.6V503.7z"/>
	<path d="M311.3,511.9c0-6.7,2.9-8.4,7.7-8.4c4.9,0,7.7,1.7,7.7,8.4c0,6.7-2.8,8.4-7.7,8.4C314.2,520.3,311.3,518.6,311.3,511.9z
		 M321.8,511.9c0-3.6-0.5-4.6-2.8-4.6c-2.2,0-2.8,1.1-2.8,4.6c0,3.5,0.5,4.5,2.8,4.5C321.3,516.4,321.8,515.4,321.8,511.9z"/>
	<path d="M342.3,507.3h2.1v3.4h-2.1v9.3h-4.5v-9.3h-3.4v9.3H330v-9.3h-1.8v-3.4h1.8v-0.1c0-4.4,2.1-5.2,5.6-5.2c0.5,0,1,0,1.5,0.1
		v3.1c-0.3,0-0.5-0.1-0.7-0.1c-1.7,0-1.9,0.4-1.9,2.1v0h3.4v-0.1c0-4.4,1.7-5.2,5.1-5.2c0.5,0,0.9,0,1.3,0.1v3.1c-0.3,0-0.4,0-0.7,0
		C342.5,505.1,342.3,505.5,342.3,507.3L342.3,507.3z M345.5,503.7c0-2.1,0.4-2.2,2.4-2.2c2.1,0,2.4,0.2,2.4,2.2
		c0,2.1-0.4,2.3-2.4,2.3C345.9,506,345.5,505.8,345.5,503.7z M345.7,507.3h4.5V520h-4.5V507.3z"/>
	<path d="M352.3,513.7c0-5.2,2.5-6.6,6.6-6.6c1.1,0,2.4,0.1,3.3,0.4v3.6c-0.8-0.3-1.6-0.4-2.5-0.4c-1.8,0-2.9,0.6-2.9,3s1,3,2.9,3
		c0.8,0,1.7-0.1,2.5-0.4v3.6c-0.8,0.3-2.2,0.5-3.4,0.5C354.7,520.3,352.3,518.9,352.3,513.7z"/>
	<path d="M376.3,514.9l-7.8,0.5c0.2,1.1,1.3,1.6,2.9,1.6c1.7,0,3.7-0.5,4.4-0.9v3.3c-0.8,0.5-2.8,1-5.3,1c-4,0-6.5-1.4-6.5-6.6
		s2.5-6.6,6.7-6.6c4.5,0,5.8,1.9,5.8,5.8C376.5,513.9,376.4,514.7,376.3,514.9z M372.5,512c0-1-0.4-1.6-1.8-1.6
		c-1.5,0-2.2,0.4-2.3,1.9L372.5,512z"/>
</g>
<g>
	<rect x="284.8" y="563.1" class="st1" width="27" height="2"/>
</g>
<g>
	<path d="M267.7,35.5c1.2-0.1,1.3-0.3,1.3-1.2v-5.9h-0.7c-1.6,0-1.7,0.3-2.1,1.5H266c0.1-0.7,0.1-1.4,0.1-2.1h0.2
		c0.1,0.1,0.2,0.2,0.3,0.3c0.1,0,0.2,0,0.4,0h4.8c0.3,0,0.4-0.1,0.6-0.3l0.2,0c0,0.6,0,1.3,0.1,2l-0.2,0c-0.3-1.4-0.7-1.5-1.8-1.5
		h-1.1v5.9c0,0.9,0.1,1.1,1.3,1.2v0.2h-3.2V35.5z"/>
	<path d="M277.5,34.8c-0.7,0.8-1.5,1-1.8,1c-1.4,0-2.3-1.1-2.3-2.4c0-1.8,1.4-2.9,2.4-2.9c1,0,1.8,0.8,1.8,1.7c0,0.2,0,0.3-0.2,0.3
		c-0.2,0-1.7,0.2-3.4,0.2c0,1.8,1.1,2.5,1.9,2.5c0.4,0,0.8-0.1,1.5-0.7L277.5,34.8z M274.1,32.4c0.3,0,2,0,2.5,0
		c0.3,0,0.3-0.1,0.3-0.2c0-0.7-0.5-1.3-1.4-1.3C274.9,30.9,274.3,31.5,274.1,32.4z"/>
	<path d="M278.5,34.1c0.2,0.8,0.8,1.5,1.5,1.5c0.5,0,1-0.3,1-0.9c0-0.6-0.4-0.9-1-1.2c-0.8-0.3-1.4-0.7-1.4-1.4
		c0-0.7,0.7-1.4,1.7-1.4c0.4,0,0.7,0.1,0.9,0.2c0.1,0.3,0.2,0.9,0.2,1.2l-0.2,0.1c-0.2-0.6-0.6-1.2-1.3-1.2c-0.6,0-0.9,0.4-0.9,0.9
		c0,0.6,0.6,0.9,1.1,1.1c0.8,0.3,1.4,0.8,1.4,1.5c0,1-0.9,1.5-1.8,1.5c-0.6,0-1.1-0.2-1.3-0.4c-0.1-0.2-0.1-0.9-0.2-1.3L278.5,34.1z
		"/>
	<path d="M284.6,35.7c-0.2,0.1-0.3,0.1-0.5,0.1c-0.7,0-1-0.5-1-1.3v-3.4h-0.9l0-0.1l0.3-0.3h0.6v-0.7l0.4-0.8l0.2,0v1.5h1.4
		c0,0,0,0.1,0,0.1c0,0.1,0,0.2-0.1,0.2h-1.4v3.1c0,1,0.3,1.2,0.7,1.2c0.4,0,0.7-0.2,0.8-0.2l0.1,0.2L284.6,35.7z"/>
	<path d="M285.6,35.5c0.8-0.1,0.9-0.2,0.9-0.9v-2.5c0-0.8-0.1-0.8-0.8-0.9V31c0.5-0.1,0.9-0.2,1.3-0.5v4.1c0,0.7,0.1,0.9,0.9,0.9
		v0.2h-2.4V35.5z M287.3,28.4c0,0.3-0.2,0.5-0.5,0.5c-0.2,0-0.5-0.2-0.5-0.5c0-0.3,0.2-0.5,0.5-0.5
		C287.1,27.9,287.3,28.2,287.3,28.4z"/>
	<path d="M288.5,35.5c0.7,0,0.9-0.2,0.9-0.9v-2.4c0-0.8-0.1-0.9-0.8-1v-0.2c0.5-0.1,1-0.2,1.3-0.5v1c0.2-0.1,0.5-0.4,0.9-0.6
		c0.3-0.2,0.6-0.3,1-0.3c1,0,1.6,0.6,1.6,1.6v2.4c0,0.8,0.1,1,0.8,1v0.2h-2.3v-0.2c0.8,0,1-0.2,1-1v-2c0-0.7-0.2-1.5-1.3-1.5
		c-0.6,0-1.2,0.4-1.6,0.7v2.7c0,0.8,0.1,0.9,0.9,1v0.2h-2.4V35.5z"/>
	<path d="M298.5,31.3c0.2,0.3,0.4,0.7,0.4,1c0,1.3-1.1,1.9-2,1.9c-0.1,0-0.3,0-0.4,0c-0.3,0.1-0.7,0.4-0.7,0.6
		c0,0.2,0.3,0.4,0.7,0.4c0.5,0,1,0,1.4,0c0.8,0,1.7,0.2,1.7,1.3c0,1.1-1.3,2.3-2.9,2.3c-1.3,0-2-0.8-2-1.5c0-0.3,0.1-0.5,0.2-0.7
		c0.2-0.3,0.8-0.7,1.1-0.9c-0.5-0.1-1-0.5-1-1c0.4-0.1,0.9-0.4,1.1-0.6c-0.5-0.2-1.1-0.8-1.1-1.5c0-1.6,1.8-2.4,3-1.7
		c0.6,0,1.1-0.1,1.6-0.2l0.1,0.1c-0.1,0.2-0.4,0.4-0.5,0.5H298.5z M295.5,37c0,0.8,0.7,1.4,1.7,1.4c1.4,0,2-0.7,2-1.6
		c0-0.4-0.2-0.7-0.5-0.9c-0.3-0.2-0.7-0.2-1.4-0.2C295.5,35.7,295.5,36.8,295.5,37z M295.8,32.2c0,1.1,0.6,1.7,1.3,1.7
		c0.5,0,1.1-0.4,1.1-1.4c0-1.1-0.4-1.7-1.2-1.7C296.3,30.8,295.8,31.3,295.8,32.2z"/>
	<path d="M302.8,35.5c1,0,1.1-0.3,1.1-1.2v-4.8c0-0.9-0.1-1.1-1.1-1.2v-0.2h2.9v0.2c-1,0.1-1.1,0.3-1.1,1.2v4.8
		c0,0.9,0.1,1.2,1.1,1.2v0.2h-2.9V35.5z"/>
	<path d="M306.3,35.5c0.9-0.1,1-0.2,1-1v-2.4c0-0.8,0-0.9-0.8-1v-0.2c0.5-0.1,1-0.2,1.4-0.5v1c1.2-0.9,1.6-0.9,1.9-0.9
		c0.4,0,1,0.3,1.3,1c1.4-0.9,1.8-1,2-1c0.9,0,1.5,0.6,1.5,1.5v2.5c0,0.9,0.1,1,0.8,1v0.2h-2.4v-0.2c0.8,0,1-0.2,1-1.1v-1.9
		c0-0.8-0.2-1.5-1.2-1.5c-0.5,0-1,0.3-1.5,0.7c0,0.2,0,0.3,0,0.4v2.3c0,0.8,0.1,1,0.8,1v0.2h-2.5v-0.2c0.9,0,1-0.2,1-1v-1.9
		c0-0.8-0.2-1.4-1.3-1.4c-0.6,0-1.1,0.4-1.5,0.7v2.7c0,0.8,0.1,1,0.8,1v0.2h-2.4V35.5z"/>
	<path d="M319.6,35.8c0,0-0.3-0.1-0.4-0.2c-0.1-0.2-0.2-0.3-0.3-0.6c-0.5,0.4-1,0.8-1.5,0.8c-0.8,0-1.4-0.6-1.4-1.4
		c0-0.5,0.4-0.9,1.2-1.2c0.6-0.2,1.4-0.5,1.6-0.6c0-0.6,0-1.6-1.1-1.6c-0.2,0-0.8,0.1-1,1c0,0.1-0.1,0.2-0.3,0.2s-0.4-0.2-0.4-0.4
		c0-0.2,0.1-0.3,0.3-0.4c0.3-0.2,1.1-0.7,1.7-0.8c0.6,0,1.3,0.4,1.3,1.4v2.6c0,0.5,0.2,0.7,0.4,0.7c0.2,0,0.4-0.1,0.5-0.2l0.1,0.2
		L319.6,35.8z M318.9,33c-0.3,0.1-1,0.4-1.3,0.5c-0.5,0.2-0.9,0.4-0.9,0.9c0,0.6,0.5,0.9,0.9,0.9c0.4,0,0.9-0.3,1.2-0.6V33z"/>
	<path d="M324.7,31.3c0.2,0.3,0.4,0.7,0.4,1c0,1.3-1.1,1.9-2,1.9c-0.1,0-0.3,0-0.4,0c-0.3,0.1-0.7,0.4-0.7,0.6
		c0,0.2,0.3,0.4,0.7,0.4c0.5,0,1,0,1.4,0c0.8,0,1.7,0.2,1.7,1.3c0,1.1-1.3,2.3-2.9,2.3c-1.3,0-2-0.8-2-1.5c0-0.3,0.1-0.5,0.2-0.7
		c0.2-0.3,0.8-0.7,1.1-0.9c-0.5-0.1-1-0.5-1-1c0.4-0.1,0.9-0.4,1.1-0.6c-0.5-0.2-1.1-0.8-1.1-1.5c0-1.6,1.8-2.4,3-1.7
		c0.6,0,1.1-0.1,1.6-0.2l0.1,0.1c-0.1,0.2-0.4,0.4-0.5,0.5H324.7z M321.6,37c0,0.8,0.7,1.4,1.7,1.4c1.4,0,2-0.7,2-1.6
		c0-0.4-0.2-0.7-0.5-0.9c-0.3-0.2-0.7-0.2-1.4-0.2C321.7,35.7,321.6,36.8,321.6,37z M322,32.2c0,1.1,0.6,1.7,1.3,1.7
		c0.5,0,1.1-0.4,1.1-1.4c0-1.1-0.4-1.7-1.2-1.7C322.5,30.8,322,31.3,322,32.2z"/>
	<path d="M330.5,34.8c-0.7,0.8-1.5,1-1.8,1c-1.4,0-2.3-1.1-2.3-2.4c0-1.8,1.4-2.9,2.4-2.9c1,0,1.8,0.8,1.8,1.7c0,0.2,0,0.3-0.2,0.3
		c-0.2,0-1.7,0.2-3.4,0.2c0,1.8,1.1,2.5,1.9,2.5c0.4,0,0.8-0.1,1.5-0.7L330.5,34.8z M327.1,32.4c0.3,0,2,0,2.5,0
		c0.3,0,0.3-0.1,0.3-0.2c0-0.7-0.5-1.3-1.4-1.3C327.9,30.9,327.3,31.5,327.1,32.4z"/>
</g>
<g>
</g>
<g>
</g>
<g>
</g>
<g>
</g>
<g>
</g>
<g>
</g>
<g>
</g>
<g>
</g>
<g>
</g>
<g>
</g>
<g>
</g>
<g>
</g>
<g>
</g>
<g>
</g>
<g>
</g>
</svg>
