<?xml version="1.0" encoding="utf-8"?>
<!-- Generator: Adobe Illustrator 22.0.0, SVG Export Plug-In . SVG Version: 6.00 Build 0)  -->
<svg version="1.1" id="图层_1" xmlns="http://www.w3.org/2000/svg" xmlns:xlink="http://www.w3.org/1999/xlink" x="0px" y="0px"
	 viewBox="0 0 2164 636" style="enable-background:new 0 0 2164 636;" xml:space="preserve">
<style type="text/css">
	.st0{fill:#FFFFFF;}
</style>
<g>
	<path class="st0" d="M764.6,148.6c212,0,423.9,0,635.9,0c0,113.5,0,227.1,0,340.7c-211.9,0-423.9,0-635.9,0
		C764.6,375.8,764.6,262.2,764.6,148.6z M881.8,257.7c0,33.7,0,67,0,100.5c10.2,0,20.2,0,30.4,0c-2.5,6.6-7.1,10.9-12.4,15
		c-5.6,4.2-11.9,4.2-18.4,5c6.1,1.2,12.4,0.2,17.9,4c5.3,3.6,10,7.5,12.7,13.9c-10.3,0-20.3,0-30.3,0c0,4.3,0,8.3,0,12.3
		c135,0,269.8,0,404.6,0c0-60.2,0-120.3,0-180.2c-135,0-269.7,0-404.6,0c0,4.4,0,8.6,0,13.1c10.7,0,21.3,0,32,0
		c-2,5.4-5.6,9.2-10,12.1C897.3,257.6,889.8,258.4,881.8,257.7z"/>
	<path d="M881.8,257.7c8,0.8,15.5-0.1,22-4.5c4.3-2.9,8-6.7,10-12.1c-10.8,0-21.3,0-32,0c0-4.5,0-8.7,0-13.1
		c134.9,0,269.6,0,404.6,0c0,60,0,120,0,180.2c-134.7,0-269.5,0-404.6,0c0-4,0-8,0-12.3c10,0,20,0,30.3,0
		c-2.7-6.4-7.4-10.2-12.7-13.9c-5.5-3.8-11.8-2.8-17.9-4c6.5-0.8,12.8-0.8,18.4-5c5.3-4,9.9-8.3,12.4-15c-10.2,0-20.2,0-30.4,0
		C881.8,324.6,881.8,291.4,881.8,257.7z M889.5,399c0,0.3,0,0.5,0,0.8c16.3,0,32.6,0,49.1,0c0-1.3,0-2.4,0-3.5c0-19.1,0-38.2,0-57.3
		c0-0.8-0.2-1.7,0.1-2.4c0.2-0.6,1-1.2,1.6-1.3c0.3-0.1,1.1,0.7,1.3,1.3c0.2,0.7,0.1,1.6,0.1,2.4c0,19.2,0,38.4,0,57.6
		c0,1.1,0,2.1,0,3.2c114.2,0,228,0,341.8,0c0-29.2,0-58.2,0-87.5c-36.8,0-73.3,0-110,0c-0.3-11.1-4.7-19.7-14.7-25.8
		c0,8.9,0,17.3,0,25.7c-40.3,0-80.3,0-120.3,0c-0.4-11.6-5.1-20.4-15.9-26.4c0,9.2,0,17.8,0,26.4c-4.3,0-8.3,0-12.5,0
		c0-8.8,0-17.4,0-26.2c-7.6,3.2-15.8,11.2-16.4,26.4c-34.6,0-69.2,0-103.9,0c0,14.3,0,28.4,0,42.7c8.7,0,17.1,0,26,0
		c-1.4,11.6-9.1,17.7-18.1,22.6c13.2,8.7,19.1,15.5,17.7,21.2C906.8,399,898.1,399,889.5,399z M1018,309.4c0.7-0.1,1.3-0.1,1.3-0.2
		c0-9.1,0-18.1,0-27.8c1.8,0.4,3.2,0.5,4.2,1.1c10.2,6.1,17,14.6,17.8,26.7c37.1,0,73.6,0,110.1,0c0-24.2,0-48.3,0-72.2
		c-44.6,0-88.9,0-133.4,0C1018,261.2,1018,285.2,1018,309.4z M1155,236.9c0,24.3,0,48.3,0,72.3c0.3,0,0.5,0,0.8,0c0-8.7,0-17.4,0-26
		c4.1-1.1,6.3,1.7,8.7,3.6c7.2,5.7,11,13.3,11.8,22.4c35.9,0,71.5,0,107.1,0c0-24.2,0-48.3,0-72.2
		C1240.4,236.9,1197.6,236.9,1155,236.9z M1014.8,237.1c-42,0-83.6,0-125.3,0c0,0.2,0,0.5,0,0.7c9.5,0,19,0,28.6,0
		c-3.1,11.8-12.7,21.2-28.5,23.2c0,16,0,32.1,0,48.2c33.7,0,67.3,0,101,0c1.2-6.2,2.6-12.2,6.9-17.2c5.3-6.2,11.6-10.6,15.6-9.9
		c0,9,0,18,0,27.1c0.4,0.1,0.8,0.1,1.2,0.2c0.2-1,0.5-2,0.5-3c0-16,0-32,0-48C1014.8,251.4,1014.8,244.3,1014.8,237.1z M886.6,233.7
		c132.5,0,264.7,0,397.1,0c-0.1-1.1-0.2-2-0.3-2.7c-133.1,0-265.9,0-399,0c0.7,2.4-0.8,5,1.7,7.8
		C886.3,236.7,886.4,235.4,886.6,233.7z M884.8,405.4c1.3,0,2.4,0,3.5,0c130.6,0,261.1,0,391.7,0c0.7,0,1.5,0.2,2.1-0.1
		c0.7-0.3,1.2-1.1,1.7-1.7c-0.2-0.3-0.4-0.5-0.6-0.8c-132.2,0-264.4,0-396.3,0c-1-1.4,0.7-3.5-2-4.1
		C884.8,400.9,884.8,403,884.8,405.4z M886.2,355.3c0-31.8,0-63.1,0-94.4c-0.4-0.1-0.7-0.2-1.1-0.2c-0.2,1-0.5,2-0.5,3
		c0,29.5,0,59,0,88.5c0,0.7-0.1,1.4,0.1,2.1C884.8,354.6,885.5,354.8,886.2,355.3z"/>
	<path class="st0" d="M889.5,399c8.6,0,17.2,0,25.7,0c1.3-5.7-4.5-12.6-17.7-21.2c9-5,16.7-11,18.1-22.6c-8.9,0-17.4,0-26,0
		c0-14.3,0-28.3,0-42.7c34.7,0,69.3,0,103.9,0c0.7-15.1,8.8-23.1,16.4-26.4c0,8.7,0,17.4,0,26.2c4.3,0,8.2,0,12.5,0
		c0-8.5,0-17.2,0-26.4c10.8,5.9,15.5,14.8,15.9,26.4c40.1,0,80.1,0,120.3,0c0-8.4,0-16.8,0-25.7c10,6.1,14.3,14.7,14.7,25.8
		c36.7,0,73.2,0,110,0c0,29.2,0,58.3,0,87.5c-113.8,0-227.6,0-341.8,0c0-1.1,0-2.2,0-3.2c0-19.2,0-38.4,0-57.6
		c0-0.8,0.1-1.7-0.1-2.4c-0.2-0.5-0.9-1.4-1.3-1.3c-0.6,0.1-1.3,0.7-1.6,1.3c-0.3,0.7-0.1,1.6-0.1,2.4c0,19.1,0,38.2,0,57.3
		c0,1.1,0,2.2,0,3.5c-16.5,0-32.8,0-49.1,0C889.5,399.5,889.5,399.2,889.5,399z M1126.9,388.8c-23.2,0-46.2,0-69.2,0
		c0,3.6,0,7.1,0,10.5c23.2,0,46.1,0,69.2,0C1126.9,395.8,1126.9,392.4,1126.9,388.8z M1205.2,331.1c0,7.4,0,14.6,0,21.9
		c18.6,0,37,0,55.4,0c0-7.4,0-14.7,0-21.9C1242,331.1,1223.6,331.1,1205.2,331.1z M1205.1,377.6c18.7,0,37.1,0,55.4,0
		c0-7.2,0-14.3,0-21.2c-18.6,0-36.9,0-55.4,0C1205.1,363.5,1205.1,370.4,1205.1,377.6z M1267.5,383c3.3,0,6.3,0,9.2,0
		c0-18.8,0-37.5,0-56c-3.2,0-6.2,0-9.2,0C1267.5,345.7,1267.5,364.2,1267.5,383z M1203.6,374.7c0-13.1,0-25.9,0-38.6
		c-7,0-13.9,0-20.6,0c0,13,0,25.7,0,38.6C1189.9,374.7,1196.6,374.7,1203.6,374.7z M1045.6,374.9c0,8.3,0,16.3,0,24.2
		c3.6,0,7.1,0,10.4,0c0-8.2,0-16.1,0-24.2C1052.5,374.9,1049.2,374.9,1045.6,374.9z"/>
	<path class="st0" d="M1018,309.4c0-24.2,0-48.3,0-72.5c44.5,0,88.8,0,133.4,0c0,24,0,48,0,72.2c-36.5,0-73,0-110.1,0
		c-0.8-12.1-7.6-20.5-17.8-26.7c-1-0.6-2.3-0.6-4.2-1.1c0,9.6,0,18.7,0,27.8C1019.2,309.3,1018.7,309.3,1018,309.4z M1122.7,254.4
		c-17.5,0-34.7,0-51.8,0c0,6.6,0,13.1,0,19.4c17.4,0,34.5,0,51.8,0C1122.7,267.3,1122.7,261,1122.7,254.4z"/>
	<path class="st0" d="M1155,236.9c42.6,0,85.4,0,128.3,0c0,24,0,48,0,72.2c-35.5,0-71.2,0-107.1,0c-0.8-9-4.6-16.7-11.8-22.4
		c-2.3-1.8-4.6-4.7-8.7-3.6c0,8.6,0,17.3,0,26c-0.3,0-0.5,0-0.8,0C1155,285.3,1155,261.3,1155,236.9z M1209.4,251.9
		c0,6.9,0,13.5,0,20.1c18.6,0,37,0,55.4,0c0-6.8,0-13.5,0-20.1C1246.3,251.9,1228,251.9,1209.4,251.9z M1209.4,273.5
		c0,6.7,0,13.1,0,19.4c18.6,0,37.1,0,55.4,0c0-6.6,0-13,0-19.4C1246.3,273.5,1228,273.5,1209.4,273.5z M1279.8,291.9
		c0-12.7,0-25.1,0-37.4c-3.4,0-6.7,0-9.8,0c0,12.6,0,24.9,0,37.4C1273.3,291.9,1276.4,291.9,1279.8,291.9z"/>
	<path class="st0" d="M1014.8,237.1c0,7.2,0,14.3,0,21.4c0,16,0,32,0,48c0,1-0.3,2-0.5,3c-0.4-0.1-0.8-0.1-1.2-0.2
		c0-9,0-18.1,0-27.1c-4-0.7-10.3,3.6-15.6,9.9c-4.3,5-5.7,11-6.9,17.2c-33.7,0-67.3,0-101,0c0-16.2,0-32.2,0-48.2
		c15.8-2,25.4-11.4,28.5-23.2c-9.6,0-19.1,0-28.6,0c0-0.2,0-0.5,0-0.7C931.2,237.1,972.8,237.1,1014.8,237.1z M985.9,255.6
		c-25.3,0-50.3,0-75.2,0c0,11.6,0,23.1,0,34.4c25.2,0,50.1,0,75.2,0C985.9,278.5,985.9,267.2,985.9,255.6z M1006,254.4
		c0.6-0.4,1.4-0.7,1.4-1.1c0-0.7-0.2-1.6-0.7-2c-3.8-3.9-7.7-7.8-11.6-11.6c-0.6-0.5-1.8-0.4-2.7-0.6c0.3,0.9,0.2,2.1,0.8,2.7
		c3.6,3.8,7.4,7.5,11.1,11.2C1004.8,253.5,1005.4,253.9,1006,254.4z"/>
	<path class="st0" d="M886.6,233.7c-0.1,1.7-0.2,3-0.4,5.1c-2.5-2.7-1-5.3-1.7-7.8c133.1,0,265.9,0,399,0c0.1,0.7,0.2,1.6,0.3,2.7
		C1151.2,233.7,1019,233.7,886.6,233.7z"/>
	<path class="st0" d="M884.8,405.4c0-2.4,0-4.5,0-6.7c2.7,0.6,1,2.7,2,4.1c131.9,0,264.1,0,396.3,0c0.2,0.3,0.4,0.5,0.6,0.8
		c-0.6,0.6-1,1.3-1.7,1.7c-0.6,0.3-1.4,0.1-2.1,0.1c-130.6,0-261.1,0-391.7,0C887.2,405.4,886.1,405.4,884.8,405.4z"/>
	<path class="st0" d="M886.2,355.3c-0.7-0.5-1.4-0.7-1.5-1.1c-0.2-0.6-0.1-1.4-0.1-2.1c0-29.5,0-59,0-88.5c0-1,0.3-2,0.5-3
		c0.4,0.1,0.7,0.2,1.1,0.2C886.2,292.2,886.2,323.6,886.2,355.3z"/>
	<path d="M1126.9,388.8c0,3.6,0,7,0,10.5c-23.1,0-46,0-69.2,0c0-3.4,0-6.8,0-10.5C1080.6,388.8,1103.6,388.8,1126.9,388.8z
		 M1123.9,391.8c-21.3,0-42.3,0-63.3,0c0,1.6,0,2.9,0,4.4c21.2,0,42.2,0,63.3,0C1123.9,394.7,1123.9,393.4,1123.9,391.8z"/>
	<path d="M1205.2,331.1c18.5,0,36.8,0,55.4,0c0,7.2,0,14.4,0,21.9c-18.4,0-36.8,0-55.4,0C1205.2,345.7,1205.2,338.5,1205.2,331.1z
		 M1208.1,350c16.7,0,33,0,49.5,0c0-5.4,0-10.6,0-15.8c-16.6,0-33,0-49.5,0C1208.1,339.6,1208.1,344.7,1208.1,350z"/>
	<path d="M1205.1,377.6c0-7.2,0-14.1,0-21.2c18.5,0,36.8,0,55.4,0c0,7,0,14,0,21.2C1242.2,377.6,1223.8,377.6,1205.1,377.6z
		 M1208.1,374.6c16.7,0,33.1,0,49.4,0c0-5.2,0-10.3,0-15.2c-16.6,0-32.9,0-49.4,0C1208.1,364.5,1208.1,369.4,1208.1,374.6z"/>
	<path d="M1267.5,383c0-18.7,0-37.3,0-56c3.1,0,6,0,9.2,0c0,18.5,0,37.1,0,56C1273.9,383,1270.8,383,1267.5,383z M1270.6,329.9
		c0,16.9,0,33.5,0,50.1c1.2,0,2.1,0,3.3,0c0-16.8,0-33.4,0-50.1C1272.7,329.9,1271.8,329.9,1270.6,329.9z"/>
	<path d="M1203.6,374.7c-7,0-13.7,0-20.6,0c0-12.9,0-25.6,0-38.6c6.8,0,13.6,0,20.6,0C1203.6,348.8,1203.6,361.6,1203.6,374.7z
		 M1186,338.9c0,11.1,0,21.9,0,32.6c5,0,9.9,0,14.6,0c0-11,0-21.7,0-32.6C1195.7,338.9,1191,338.9,1186,338.9z"/>
	<path d="M1045.6,374.9c3.6,0,6.9,0,10.4,0c0,8.1,0,16,0,24.2c-3.4,0-6.8,0-10.4,0C1045.6,391.2,1045.6,383.2,1045.6,374.9z
		 M1048.6,377.9c0,6.2,0,12.2,0,18.3c1.6,0,3,0,4.4,0c0-6.2,0-12.2,0-18.3C1051.4,377.9,1050.1,377.9,1048.6,377.9z"/>
	<path d="M1122.7,254.4c0,6.6,0,12.9,0,19.4c-17.3,0-34.4,0-51.8,0c0-6.4,0-12.8,0-19.4C1088,254.4,1105.2,254.4,1122.7,254.4z
		 M1073.7,270.8c15.5,0,30.7,0,45.8,0c0-4.6,0-9.1,0-13.4c-15.4,0-30.5,0-45.8,0C1073.7,261.9,1073.7,266.2,1073.7,270.8z"/>
	<path d="M1209.4,251.9c18.6,0,36.9,0,55.4,0c0,6.7,0,13.3,0,20.1c-18.4,0-36.8,0-55.4,0C1209.4,265.4,1209.4,258.7,1209.4,251.9z
		 M1261.9,255c-16.6,0-33.1,0-49.4,0c0,4.8,0,9.5,0,14c16.6,0,32.9,0,49.4,0C1261.9,264.3,1261.9,259.8,1261.9,255z"/>
	<path d="M1209.4,273.5c18.6,0,36.9,0,55.4,0c0,6.5,0,12.8,0,19.4c-18.4,0-36.8,0-55.4,0C1209.4,286.6,1209.4,280.2,1209.4,273.5z
		 M1261.9,276.6c-16.7,0-33.1,0-49.4,0c0,4.6,0,9.1,0,13.4c16.6,0,32.9,0,49.4,0C1261.9,285.5,1261.9,281.2,1261.9,276.6z"/>
	<path d="M1279.8,291.9c-3.4,0-6.5,0-9.8,0c0-12.5,0-24.8,0-37.4c3.2,0,6.4,0,9.8,0C1279.8,266.8,1279.8,279.2,1279.8,291.9z
		 M1276.8,288.9c0-10.7,0-21.1,0-31.5c-1.4,0-2.5,0-3.8,0c0,10.6,0,21,0,31.5C1274.3,288.9,1275.4,288.9,1276.8,288.9z"/>
	<path d="M985.9,255.6c0,11.6,0,22.9,0,34.4c-25.1,0-50,0-75.2,0c0-11.4,0-22.8,0-34.4C935.6,255.6,960.6,255.6,985.9,255.6z
		 M982.8,287.1c0-9.7,0-19.1,0-28.4c-23.2,0-46.3,0-69.2,0c0,9.6,0,19,0,28.4C936.7,287.1,959.6,287.1,982.8,287.1z"/>
	<path d="M1006,254.4c-0.6-0.5-1.2-0.9-1.7-1.4c-3.7-3.7-7.5-7.4-11.1-11.2c-0.6-0.6-0.5-1.8-0.8-2.7c0.9,0.2,2.1,0,2.7,0.6
		c4,3.8,7.8,7.7,11.6,11.6c0.5,0.5,0.7,1.4,0.7,2C1007.4,253.7,1006.6,254,1006,254.4z"/>
	<path class="st0" d="M1123.9,391.8c0,1.6,0,2.9,0,4.4c-21.2,0-42.2,0-63.3,0c0-1.5,0-2.9,0-4.4
		C1081.6,391.8,1102.6,391.8,1123.9,391.8z"/>
	<path class="st0" d="M1208.1,350c0-5.3,0-10.5,0-15.8c16.4,0,32.9,0,49.5,0c0,5.2,0,10.4,0,15.8C1241.2,350,1224.8,350,1208.1,350z
		"/>
	<path class="st0" d="M1208.1,374.6c0-5.2,0-10.1,0-15.2c16.5,0,32.8,0,49.4,0c0,5,0,10,0,15.2
		C1241.2,374.6,1224.8,374.6,1208.1,374.6z"/>
	<path class="st0" d="M1270.6,329.9c1.2,0,2.1,0,3.3,0c0,16.8,0,33.4,0,50.1c-1.1,0-2.1,0-3.3,0
		C1270.6,363.4,1270.6,346.8,1270.6,329.9z"/>
	<path class="st0" d="M1186,338.9c5,0,9.7,0,14.6,0c0,10.9,0,21.6,0,32.6c-4.8,0-9.6,0-14.6,0C1186,360.8,1186,350,1186,338.9z"/>
	<path class="st0" d="M1048.6,377.9c1.5,0,2.9,0,4.4,0c0,6,0,12.1,0,18.3c-1.4,0-2.8,0-4.4,0
		C1048.6,390.1,1048.6,384.1,1048.6,377.9z"/>
	<path class="st0" d="M1073.7,270.8c0-4.6,0-8.9,0-13.4c15.3,0,30.4,0,45.8,0c0,4.4,0,8.8,0,13.4
		C1104.4,270.8,1089.2,270.8,1073.7,270.8z"/>
	<path class="st0" d="M1261.9,255c0,4.8,0,9.3,0,14c-16.5,0-32.8,0-49.4,0c0-4.6,0-9.2,0-14C1228.8,255,1245.2,255,1261.9,255z"/>
	<path class="st0" d="M1261.9,276.6c0,4.6,0,8.9,0,13.4c-16.5,0-32.8,0-49.4,0c0-4.4,0-8.8,0-13.4
		C1228.8,276.6,1245.2,276.6,1261.9,276.6z"/>
	<path class="st0" d="M1276.8,288.9c-1.4,0-2.5,0-3.8,0c0-10.6,0-21,0-31.5c1.3,0,2.5,0,3.8,0
		C1276.8,267.8,1276.8,278.2,1276.8,288.9z"/>
	<path class="st0" d="M982.8,287.1c-23.1,0-46.1,0-69.2,0c0-9.5,0-18.8,0-28.4c22.9,0,46,0,69.2,0
		C982.8,268,982.8,277.4,982.8,287.1z"/>
</g>
</svg>
